<svg xmlns="http://www.w3.org/2000/svg" width="24" height="24" viewBox="0 0 24 30" fill="none">
<path fill-rule="evenodd" clip-rule="evenodd" d="M7.25006 8.09445V6.66648C7.25006 5.60904 7.88381 4.71072 8.74047 4.55385L9.96038 4.33048C11.3126 4.08287 12.6875 4.08287 14.0397 4.33048L15.2597 4.55385C16.1163 4.71072 16.7501 5.60904 16.7501 6.66648V8.09445L18.4641 8.26335C19.7765 8.39266 20.847 9.59891 21.0575 11.1855C21.5227 14.6921 21.5227 18.2672 21.0575 21.7737C20.847 23.3603 19.7765 24.5666 18.4641 24.6959L16.5922 24.8803C13.5357 25.1815 10.4644 25.1815 7.40793 24.8803L5.53602 24.6959C4.22363 24.5666 3.15309 23.3603 2.94261 21.7737C2.47742 18.2672 2.47742 14.6921 2.94261 11.1855C3.15309 9.59891 4.22363 8.39266 5.53602 8.26335L7.25006 8.09445ZM10.1829 6.1413C11.3876 5.92071 12.6125 5.92071 13.8172 6.1413L15.0371 6.36468C15.1595 6.38709 15.2501 6.51542 15.2501 6.66648V7.96607C13.0852 7.81534 10.915 7.81534 8.75006 7.96607V6.66648C8.75006 6.51542 8.8406 6.38709 8.96298 6.36468L10.1829 6.1413ZM7.52862 9.90404C10.5047 9.61079 13.4954 9.61079 16.4715 9.90404L18.3434 10.0885C18.9676 10.15 19.4767 10.7237 19.5768 11.4782C19.6391 11.9481 19.6926 12.4193 19.7373 12.8914C14.8597 15.8234 9.14044 15.8234 4.26284 12.8914C4.30749 12.4193 4.36098 11.9481 4.42332 11.4782C4.52342 10.7237 5.03255 10.15 5.6567 10.0885L7.52862 9.90404ZM4.12895 14.8398C9.12835 17.6153 14.8718 17.6153 19.8712 14.8398C19.9665 17.0568 19.8684 19.2832 19.5768 21.481C19.4767 22.2356 18.9676 22.8092 18.3434 22.8707L16.4715 23.0552C13.4954 23.3484 10.5047 23.3484 7.52862 23.0552L5.6567 22.8707C5.03255 22.8092 4.52342 22.2356 4.42332 21.481C4.13175 19.2832 4.03362 17.0568 4.12895 14.8398Z" fill="black"/>
</svg>