<svg width="28" height="28" viewBox="0 0 28 28" fill="none" xmlns="http://www.w3.org/2000/svg">
<path d="M18.8559 14.5403V20.0349C18.8559 20.5209 18.8018 20.9799 18.68 21.3984C18.1796 23.3829 16.5294 24.625 14.257 24.625H10.5779L6.493 27.3385C5.88433 27.757 5.07276 27.3115 5.07276 26.5825V24.625C3.6931 24.625 2.54338 24.166 1.74533 23.3694C0.933765 22.5594 0.473877 21.4119 0.473877 20.0349V14.5403C0.473877 11.9752 2.06996 10.2067 4.53172 9.9772C4.70756 9.9637 4.8834 9.9502 5.07276 9.9502H14.257C17.0163 9.9502 18.8559 11.7862 18.8559 14.5403Z" fill="white"/>
<path d="M21.7776 18.8603C23.4954 18.8603 24.9427 18.2933 25.9436 17.2808C26.9581 16.2818 27.5262 14.8373 27.5262 13.1227V6.23761C27.5262 3.06505 24.9562 0.5 21.7776 0.5H10.2803C7.1017 0.5 4.53174 3.06505 4.53174 6.23761V7.25013C4.53174 7.62814 4.82931 7.92514 5.20804 7.92514H14.257C17.9226 7.92514 20.8848 10.8817 20.8848 14.5403V18.1853C20.8848 18.5633 21.1824 18.8603 21.5611 18.8603H21.7776Z" fill="white"/>
</svg>
