<svg width="24" height="24" viewBox="0 0 24 24" fill="none" xmlns="http://www.w3.org/2000/svg">
<path d="M14.06 9.94023L13 9.45023C12.9127 9.41046 12.8387 9.34642 12.7868 9.26574C12.7349 9.18506 12.7073 9.09116 12.7073 8.99523C12.7073 8.89931 12.7349 8.8054 12.7868 8.72473C12.8387 8.64405 12.9127 8.58001 13 8.54023L14.06 8.05023L14.55 7.00023C14.5897 6.91294 14.6538 6.83893 14.7345 6.78703C14.8151 6.73513 14.909 6.70754 15.005 6.70754C15.1009 6.70754 15.1948 6.73513 15.2755 6.78703C15.3562 6.83893 15.4202 6.91294 15.46 7.00023L15.95 8.06024L17 8.55023C17.0873 8.59001 17.1613 8.65405 17.2132 8.73473C17.2651 8.8154 17.2927 8.90931 17.2927 9.00523C17.2927 9.10116 17.2651 9.19507 17.2132 9.27574C17.1613 9.35642 17.0873 9.42046 17 9.46023L15.94 9.95023L15.45 11.0002C15.4102 11.0875 15.3462 11.1615 15.2655 11.2134C15.1848 11.2653 15.0909 11.2929 14.995 11.2929C14.899 11.2929 14.8051 11.2653 14.7245 11.2134C14.6438 11.1615 14.5797 11.0875 14.54 11.0002L14.06 9.94023ZM4.44997 13.0002L4.93997 11.9402L5.99997 11.4502C6.08727 11.4105 6.16128 11.3464 6.21317 11.2657C6.26507 11.1851 6.29267 11.0912 6.29267 10.9952C6.29267 10.8993 6.26507 10.8054 6.21317 10.7247C6.16128 10.6441 6.08727 10.58 5.99997 10.5402L4.93997 10.0502L4.44997 9.00023C4.41143 8.91303 4.34838 8.83891 4.26849 8.78688C4.1886 8.73484 4.09531 8.70714 3.99997 8.70714C3.90463 8.70714 3.81134 8.73484 3.73146 8.78688C3.65157 8.83891 3.58852 8.91303 3.54997 9.00023L3.05997 10.0602L1.99997 10.5502C1.91268 10.59 1.83867 10.6541 1.78677 10.7347C1.73487 10.8154 1.70728 10.9093 1.70728 11.0052C1.70728 11.1012 1.73487 11.1951 1.78677 11.2757C1.83867 11.3564 1.91268 11.4205 1.99997 11.4602L3.05997 11.9502L3.54997 13.0002C3.71997 13.3902 4.27997 13.3902 4.44997 13.0002ZM8.95997 7.99023L9.58997 6.59023L10.99 5.96023C11.0773 5.92046 11.1513 5.85642 11.2032 5.77574C11.2551 5.69507 11.2827 5.60116 11.2827 5.50523C11.2827 5.40931 11.2551 5.3154 11.2032 5.23473C11.1513 5.15405 11.0773 5.09001 10.99 5.05024L9.58997 4.42023L8.95997 3.02023C8.9202 2.93294 8.85615 2.85893 8.77548 2.80703C8.6948 2.75513 8.6009 2.72754 8.50497 2.72754C8.40904 2.72754 8.31514 2.75513 8.23446 2.80703C8.15379 2.85893 8.08974 2.93294 8.04997 3.02023L7.41997 4.42023L6.01997 5.05024C5.93268 5.09001 5.85867 5.15405 5.80677 5.23473C5.75487 5.3154 5.72728 5.40931 5.72728 5.50523C5.72728 5.60116 5.75487 5.69507 5.80677 5.77574C5.85867 5.85642 5.93268 5.92046 6.01997 5.96023L7.41997 6.59023L8.04997 7.99023C8.21997 8.38023 8.77997 8.38023 8.95997 7.99023ZM22.34 8.27024C22.2439 8.17443 22.1293 8.09918 22.0031 8.04908C21.877 7.99898 21.742 7.97507 21.6064 7.97881C21.4707 7.98255 21.3373 8.01387 21.2141 8.07084C21.0909 8.12782 20.9806 8.20927 20.89 8.31024L14.5 15.4902L11.21 12.2002C11.1175 12.1075 11.0076 12.034 10.8866 11.9838C10.7656 11.9336 10.6359 11.9078 10.505 11.9078C10.374 11.9078 10.2443 11.9336 10.1233 11.9838C10.0024 12.034 9.89249 12.1075 9.79997 12.2002L3.75997 18.2502C3.34997 18.6602 3.34997 19.3402 3.75997 19.7502C4.16997 20.1602 4.84997 20.1602 5.25997 19.7502L10.51 14.4902L13.76 17.7402C14.17 18.1502 14.83 18.1302 15.21 17.7002L22.38 9.63023C22.73 9.24023 22.71 8.64023 22.34 8.27024Z" fill="black"/>
</svg>

