<svg width="21" height="18" viewBox="0 0 21 18" fill="none" xmlns="http://www.w3.org/2000/svg">
<path d="M14.4874 7.40785C14.0974 7.79785 13.4474 7.79785 13.0574 7.40785L8.58736 2.94785L1.53736 9.98785L0.87736 9.35785C0.315558 8.79535 0 8.03286 0 7.23785C0 6.44285 0.315558 5.68035 0.87736 5.11785L5.11736 0.877853C5.67986 0.316051 6.44236 0.000492353 7.23736 0.000492353C8.03236 0.000492353 8.79486 0.316051 9.35736 0.877853L14.4874 5.99785C14.8774 6.38785 14.8774 7.01785 14.4874 7.40785ZM15.1874 5.28785C15.9674 6.06785 15.9674 7.33785 15.1874 8.11785C13.9174 9.38785 12.5774 8.33785 12.3574 8.11785L8.59736 4.35785L3.02736 9.92785C2.93466 10.0204 2.86111 10.1303 2.81093 10.2512C2.76075 10.3722 2.73492 10.5019 2.73492 10.6329C2.73492 10.7638 2.76075 10.8935 2.81093 11.0145C2.86111 11.1355 2.93466 11.2453 3.02736 11.3379C3.41736 11.7279 4.04736 11.7279 4.44736 11.3379L9.06736 6.71785L9.77736 7.42785L5.15736 12.0479C5.06466 12.1404 4.99111 12.2503 4.94093 12.3712C4.89075 12.4922 4.86492 12.6219 4.86492 12.7529C4.86492 12.8838 4.89075 13.0135 4.94093 13.1345C4.99111 13.2554 5.06466 13.3653 5.15736 13.4579C5.54736 13.8479 6.17736 13.8479 6.57736 13.4579L11.1974 8.83785L11.9074 9.54785L7.28736 14.1679C7.19478 14.2604 7.12134 14.3703 7.07123 14.4913C7.02113 14.6123 6.99534 14.7419 6.99534 14.8729C6.99534 15.0038 7.02113 15.1334 7.07123 15.2544C7.12134 15.3754 7.19478 15.4853 7.28736 15.5779C7.37994 15.6704 7.48985 15.7439 7.61082 15.794C7.73178 15.8441 7.86143 15.8699 7.99236 15.8699C8.12329 15.8699 8.25294 15.8441 8.3739 15.794C8.49487 15.7439 8.60478 15.6704 8.69736 15.5779L13.3174 10.9579L14.0274 11.6679L9.40736 16.2879C9.31478 16.3804 9.24134 16.4903 9.19123 16.6113C9.14113 16.7323 9.11534 16.8619 9.11534 16.9929C9.11534 17.1238 9.14113 17.2534 9.19123 17.3744C9.24134 17.4954 9.31478 17.6053 9.40736 17.6979C9.59434 17.8848 9.84793 17.9899 10.1124 17.9899C10.2433 17.9899 10.3729 17.9641 10.4939 17.914C10.6149 17.8639 10.7248 17.7904 10.8174 17.6979L19.1374 9.35785C19.6992 8.79535 20.0147 8.03286 20.0147 7.23785C20.0147 6.44285 19.6992 5.68035 19.1374 5.11785L14.8974 0.877853C14.3452 0.326282 13.5999 0.011511 12.8195 0.000309486C12.0392 -0.010892 11.2851 0.282357 10.7174 0.817852L15.1874 5.28785Z" fill="black"/>
</svg>
