<svg width="92" height="74" viewBox="0 0 92 74" fill="none" xmlns="http://www.w3.org/2000/svg">
<path d="M45.4329 31.9528C45.5268 32.0312 45.6181 32.107 45.7071 32.1808C46.156 32.5532 46.5432 32.8745 46.8736 33.2204L46.8751 33.222C47.6154 34.0043 48.3691 34.7816 49.1249 35.5612C51.0684 37.5657 53.0265 39.5853 54.8111 41.7443L54.8114 41.7448C57.3919 44.8736 58.1975 48.6579 57.8086 52.6831C57.492 55.9589 56.2409 58.365 54.2041 59.5893C52.165 60.8149 49.481 60.7708 46.4889 59.4591C46.3287 59.3898 46.1645 59.3236 45.9932 59.2547L45.9896 59.2532C45.8223 59.1858 45.6481 59.1157 45.4762 59.0414C45.4754 59.041 45.4746 59.0407 45.4738 59.0403L45.4329 31.9528ZM45.4329 31.9528C45.8404 31.651 46.2345 31.3479 46.6158 31.0546C46.9129 30.8261 47.2023 30.6035 47.4842 30.3921C48.2919 29.7866 49.065 29.2518 49.8868 28.8376C57.6785 24.9188 65.5329 21.1079 73.3915 17.3237C74.0259 17.0194 74.5753 17.0612 75.0138 17.3151C75.4689 17.5787 75.8739 18.1123 76.1018 18.9139L76.1021 18.9147C76.2825 19.5453 76.512 20.0786 76.7933 20.4875C77.0736 20.8949 77.4299 21.2127 77.8708 21.3395C78.7982 21.6062 79.6601 20.9524 80.3599 19.9354C83.9123 14.8016 87.2851 9.52024 90.5155 4.15678L45.4329 31.9528ZM47.4295 55.9139C47.3992 55.9083 47.3688 55.9025 47.3383 55.8965L46.8801 55.8067L46.8063 56.0822C46.5352 55.8919 46.2582 55.7064 45.9813 55.5209C45.0212 54.878 44.0603 54.2346 43.3373 53.3866C41.8756 51.6829 40.6208 49.7502 39.5763 47.7454C37.0716 42.9455 37.6024 39.5736 41.0914 35.4071M47.4295 55.9139C47.0477 55.6336 46.6381 55.359 46.2395 55.0919C45.9753 54.9149 45.716 54.7411 45.4728 54.571C44.8031 54.1026 44.1983 53.6258 43.7177 53.0621L43.7167 53.061C42.2841 51.391 41.0498 49.4914 40.0197 47.5143L40.0195 47.5141C38.7954 45.1681 38.344 43.2307 38.582 41.4033C38.8206 39.5715 39.7614 37.7742 41.4745 35.7284M47.4295 55.9139C47.4664 55.941 47.5031 55.9682 47.5395 55.9954L47.2458 56.3879C51.7007 57.2589 54.9348 54.7497 54.3831 50.3641M47.4295 55.9139C49.5113 56.3006 51.2368 55.8964 52.3733 54.9619C53.515 54.0231 54.1453 52.4815 53.8872 50.4276M41.4745 35.7284C41.4743 35.7287 41.4741 35.729 41.4738 35.7293L41.0914 35.4071M41.4745 35.7284C41.4746 35.7283 41.4747 35.7282 41.4748 35.7282L41.0914 35.4071M41.4745 35.7284C41.9457 35.1692 42.2649 34.9228 42.5191 34.8701C42.7031 34.8319 43.0013 34.8739 43.5185 35.4314L43.5191 35.4321C44.4364 36.4172 45.3741 37.3637 46.3049 38.3032C48.1924 40.2083 50.0516 42.0848 51.6547 44.1975M41.0914 35.4071C42.0246 34.2993 42.7635 33.8825 43.885 35.0914C44.7792 36.0517 45.7046 36.986 46.6297 37.9199C48.531 39.8393 50.4305 41.757 52.053 43.8952M51.6547 44.1975C51.6545 44.1972 51.6543 44.197 51.6541 44.1968L52.053 43.8952M51.6547 44.1975L52.053 43.8952M51.6547 44.1975C52.902 45.8477 53.6026 48.226 53.8872 50.4276M52.053 43.8952C53.3752 45.6441 54.0933 48.1211 54.3831 50.3641M54.3831 50.3641L53.887 50.4265C53.8871 50.4269 53.8871 50.4272 53.8872 50.4276M54.3831 50.3641L53.8873 50.4282C53.8872 50.428 53.8872 50.4278 53.8872 50.4276M25.4729 62.6194C27.3801 63.3047 28.2855 62.5381 28.4706 60.4224L25.4729 62.6194ZM25.4729 62.6194C19.687 60.5415 15.6803 56.5271 12.7656 50.6296L25.4729 62.6194ZM38.8562 32.2266C37.2762 30.7398 34.9309 29.445 32.273 28.499C29.4638 27.4993 26.3473 26.9042 23.4986 26.873C17.6574 26.8134 14.0812 29.9722 12.339 34.0628C10.6404 38.051 10.6992 42.9062 12.1569 46.4746C12.2807 46.4499 12.4055 46.4249 12.5311 46.3997C13.32 46.2412 14.1416 46.0763 14.9639 45.9666L14.9645 45.9666C20.1554 45.2807 24.5681 46.4888 27.6204 49.116C30.6767 51.7467 32.3101 55.7503 32.0309 60.5283C31.8758 63.2077 30.8401 65.2418 29.1316 66.2631C27.4171 67.288 25.1697 67.2071 22.7829 65.9639L22.7824 65.9636C17.3967 63.1508 13.0921 59.0662 10.3085 53.5527C9.91559 52.778 9.63357 52.5784 9.44042 52.5401C9.22873 52.4982 8.88138 52.594 8.21375 53.0743L8.21354 53.0744C6.25009 54.4853 5.04912 56.142 4.65842 57.8887C4.27005 59.6251 4.66467 61.5287 6.04515 63.4838C7.01742 64.8556 8.19726 66.0868 9.44937 67.2998C9.85758 67.6953 10.276 68.0911 10.697 68.4893C11.5551 69.301 12.424 70.1229 13.2394 70.9731L13.2404 70.9741C13.4923 71.2383 13.6506 71.5591 13.7709 71.8408C13.8247 71.9666 13.8685 72.0773 13.9094 72.1808C13.9715 72.3377 14.0269 72.4778 14.1002 72.6281L14.449 73.343L13.6535 73.3473C13.5488 73.3479 13.427 73.3593 13.2808 73.3762C13.2501 73.3797 13.2179 73.3835 13.1847 73.3875C13.0696 73.4012 12.9419 73.4165 12.8208 73.426C12.6635 73.4383 12.4851 73.4443 12.3108 73.4209C12.1372 73.3977 11.9341 73.3412 11.7556 73.2022C11.0918 72.692 10.4111 72.1869 9.72562 71.6782C7.42444 69.9704 5.07027 68.2233 3.12474 66.116C1.61282 64.4853 0.847843 61.8164 0.649993 59.6061C0.193932 54.6816 3.2852 51.4982 6.92726 49.1461C7.4628 48.7994 7.70263 48.5336 7.81317 48.2658C7.92482 47.9953 7.94185 47.6334 7.81953 47.0052L7.81949 47.0049C7.34514 44.5625 6.91691 42.0126 6.94542 39.479L6.94543 39.4785C7.06798 29.4401 15.5107 22.0536 25.435 23.0218L25.4354 23.0218C31.0151 23.5708 35.8483 25.9943 40.4261 28.8056L40.4266 28.8059C41.0349 29.1805 41.4322 29.2697 41.7746 29.2315C42.1404 29.1907 42.5334 28.997 43.1259 28.6012L43.1261 28.601C43.4519 28.3836 43.778 28.1657 44.1043 27.9476C47.9178 25.3988 51.7788 22.8182 55.8519 20.669L55.8524 20.6688C59.4704 18.7641 63.221 17.1018 67.0402 15.4092C68.5594 14.7359 70.0894 14.0578 71.6262 13.3578C71.4288 12.9447 71.2752 12.6241 71.1042 12.3065C70.722 11.6024 70.4276 11.0023 70.2541 10.4731C70.0789 9.93852 70.0138 9.43791 70.1321 8.9484C70.2506 8.45797 70.5372 8.0447 70.9389 7.65446C71.3361 7.2686 71.8737 6.87893 72.5376 6.4406C77.2163 3.35181 82.3246 1.4253 87.8697 0.724109L87.87 0.724061C88.9959 0.582571 90.0073 0.814375 90.5723 1.48738C91.17 2.19942 91.1001 3.18691 90.5156 4.15664L38.8562 32.2266ZM14.3789 50.3179C14.0318 50.3878 13.6668 50.4612 13.277 50.5352C16.1408 56.2714 20.043 60.1381 25.6419 62.1488L25.642 62.1488C26.5384 62.471 27.0302 62.3895 27.3152 62.1731C27.6263 61.9368 27.8828 61.4045 27.9725 60.3788L27.9726 60.3777C28.2846 56.8952 27.3683 54.1684 25.5413 52.3704C23.7114 50.5695 20.8918 49.6253 17.2479 49.8678L17.246 49.868C16.3292 49.9255 15.4376 50.1049 14.3789 50.3179ZM75.2189 9.80637C76.1853 11.7334 77.0205 13.4018 78.0305 15.4195L78.0308 15.4202C78.9 14.1485 79.7342 12.9294 80.5462 11.7429C81.8473 9.84167 83.0913 8.0238 84.331 6.20617C84.2715 6.11372 84.2123 6.02213 84.1529 5.93098C82.0176 6.85958 79.8804 7.78589 77.6922 8.73426C76.8757 9.08814 76.0522 9.44509 75.2189 9.80637Z" fill="black" stroke="black"/>
</svg>
