<svg width="393" height="598" viewBox="0 0 393 598" fill="none" xmlns="http://www.w3.org/2000/svg">
<path d="M-36.5846 84.8779L-37 85.8322V86.8731V1090V1095H-32H404H409V1090V96.1923V96.1801C409 96.125 409 96.0693 408.999 96.013L400.106 96.088L400.033 96.0886L399 96.072C399 96.0713 399 96.0705 399 96.0697C399.007 95.6736 399.083 95.4292 399.101 95.3774C399.085 95.4184 399.013 95.5823 398.827 95.8884C398.448 96.5134 397.793 97.4016 396.798 98.5474C394.821 100.824 391.85 103.724 388.038 107.011C380.434 113.566 369.838 121.358 358.033 128.401C346.209 135.455 333.355 141.648 321.222 145.146C308.978 148.677 298.152 149.267 289.908 146.021C280.739 142.411 266.907 133.976 251.008 123.016C235.23 112.139 217.787 99.0404 201.517 86.3855C185.255 73.7366 170.204 61.5624 159.216 52.5484C153.723 48.0422 149.248 44.3278 146.148 41.7412C144.598 40.4479 143.391 39.4367 142.574 38.7495C142.165 38.4059 141.853 38.1434 141.644 37.9671L141.408 37.7681L141.349 37.7183L141.334 37.7061L141.331 37.7032C141.33 37.7026 141.33 37.7024 138.102 41.5208L141.33 37.7024L141.126 37.53L140.905 37.3802C135.75 33.8906 131.403 30.2837 127.23 26.7202C126.662 26.2351 126.094 25.7483 125.526 25.2614C121.982 22.2224 118.428 19.1743 114.685 16.4699C105.701 9.9777 95.4878 5.34798 79.6427 5.00594C70.8855 4.8169 59.6292 9.21831 48.2414 15.2801C36.6062 21.4735 23.9591 29.8887 12.129 38.7167C0.28838 47.5526 -10.8435 56.8842 -19.4507 64.9668C-23.7512 69.0051 -27.469 72.7761 -30.3458 76.0512C-33.1101 79.1983 -35.4538 82.2794 -36.5846 84.8779Z" fill="#0099FF" stroke="black" stroke-width="10"/>
</svg>
