<svg width="332" height="331" viewBox="0 0 332 331" fill="none" xmlns="http://www.w3.org/2000/svg">
<circle cx="165" cy="166" r="136.5" stroke="#0954B0"/>
<path d="M325.873 120.794C328.736 130.993 330.644 141.59 331.494 152.483L330.996 152.522C331.33 156.804 331.5 161.132 331.5 165.5C331.5 169.868 331.33 174.196 330.996 178.478L331.494 178.517C330.511 191.111 328.114 203.31 324.462 214.955L323.985 214.806C320.498 225.921 315.864 236.531 310.221 246.497L310.656 246.743C305.341 256.129 299.134 264.945 292.15 273.078L291.771 272.753C286.132 279.319 279.986 285.438 273.392 291.049L273.716 291.43C264.307 299.437 253.991 306.414 242.942 312.187L242.71 311.744C232.574 317.039 221.819 321.318 210.582 324.444L210.716 324.926C200.512 327.765 189.913 329.656 179.018 330.499L178.979 330C174.696 330.331 170.368 330.5 166 330.5C161.632 330.5 157.304 330.331 153.021 330L152.982 330.499C140.386 329.524 128.183 327.148 116.532 323.527L116.68 323.049C105.551 319.59 94.9257 314.991 84.9423 309.389L84.6976 309.825C75.2864 304.544 66.4438 298.374 58.2843 291.43L58.6083 291.049C52.0142 285.438 45.8676 279.319 40.2292 272.753L39.8498 273.078C31.7958 263.7 24.7757 253.412 18.9656 242.391L19.4079 242.158C14.072 232.037 9.75988 221.296 6.60861 210.071L6.12722 210.206C3.26389 200.007 1.35602 189.41 0.505934 178.517L1.00442 178.478C0.670228 174.196 0.5 169.868 0.5 165.5C0.5 161.132 0.670229 156.804 1.00442 152.522L0.505934 152.483C1.48879 139.889 3.88564 127.69 7.53835 116.045L8.01543 116.194C11.5018 105.079 16.1359 94.4694 21.7793 84.503L21.3442 84.2567C26.6587 74.8712 32.8655 66.0547 39.8499 57.9215L40.2292 58.2473C45.8676 51.6815 52.0142 45.5624 58.6084 39.9506L58.2843 39.5698C67.6926 31.563 78.0091 24.5858 89.0583 18.8132L89.2899 19.2564C99.4262 13.9607 110.181 9.68178 121.418 6.55557L121.284 6.07386C131.488 3.23516 142.087 1.34396 152.982 0.501388L153.021 0.999899C157.304 0.668697 161.632 0.5 166 0.5C170.368 0.5 174.696 0.668697 178.979 0.999899L179.018 0.501388C191.614 1.47558 203.817 3.85159 215.468 7.47312L215.32 7.95059C226.449 11.4099 237.074 16.0091 247.058 21.6112L247.302 21.1752C256.714 26.4562 265.556 32.6258 273.716 39.5698L273.392 39.9506C279.986 45.5624 286.132 51.6815 291.771 58.2473L292.15 57.9215C300.204 67.3003 307.224 77.5879 313.034 88.6086L312.592 88.8418C317.928 98.9629 322.24 109.704 325.391 120.929L325.873 120.794Z" stroke="#FFD600" stroke-dasharray="21 26 28 30"/>
<circle cx="165" cy="166" r="100.5" stroke="#FF7070" stroke-dasharray="14 16 18 20"/>
<circle cx="164.5" cy="165.5" r="55" stroke="#0954B0"/>
<g filter="url(#filter0_d_787_67)">
<path fill-rule="evenodd" clip-rule="evenodd" d="M153.062 142.929C155.077 141.364 156.294 139.329 156.294 137.105C156.294 132.163 150.285 128.157 142.873 128.157C135.46 128.157 129.451 132.163 129.451 137.105C129.451 142.047 135.46 146.053 142.873 146.053C144.932 146.053 146.884 145.743 148.628 145.191L153.901 147.475L153.062 142.929Z" fill="#FFD600"/>
</g>
<circle cx="136.908" cy="137.106" r="1.49129" fill="#090909"/>
<circle cx="142.873" cy="137.106" r="1.49129" fill="#090909"/>
<circle cx="148.838" cy="137.106" r="1.49129" fill="#090909"/>
<g filter="url(#filter1_d_787_67)">
<g filter="url(#filter2_d_787_67)">
<path fill-rule="evenodd" clip-rule="evenodd" d="M179.873 135.895C187.285 135.895 193.294 131.889 193.294 126.948C193.294 122.006 187.285 118 179.873 118C172.46 118 166.451 122.006 166.451 126.948C166.451 129.182 167.68 131.225 169.711 132.793L169.649 138.082L174.244 135.073C175.956 135.601 177.863 135.895 179.873 135.895Z" fill="#FFD600"/>
</g>
<circle cx="173.908" cy="126.947" r="1.49129" fill="#090909"/>
<circle cx="179.873" cy="126.947" r="1.49129" fill="#090909"/>
<circle cx="185.838" cy="126.947" r="1.49129" fill="#090909"/>
</g>
<g filter="url(#filter3_d_787_67)">
<g filter="url(#filter4_d_787_67)">
<ellipse cx="164.275" cy="195.99" rx="36.2745" ry="9.79412" fill="#1F1F1F"/>
</g>
<path fill-rule="evenodd" clip-rule="evenodd" d="M134.529 158.628H191.48C191.48 158.628 191.379 160.766 191.145 163.355C191.919 163.516 192.678 163.729 193.413 163.992C195.346 164.683 197.067 165.705 198.454 166.985C199.841 168.265 200.861 169.773 201.443 171.402C202.024 173.031 202.152 174.742 201.819 176.416C201.486 178.089 200.699 179.683 199.513 181.087C198.328 182.491 196.772 183.67 194.957 184.542C193.141 185.414 191.108 185.957 189.002 186.133C187.384 186.269 185.752 186.186 184.174 185.889C183.965 186.219 183.741 186.562 183.5 186.922C183.274 187.26 183.061 187.583 182.857 187.892C181.393 190.112 180.365 191.672 178.059 193.451C176.709 194.493 175.773 195.019 174.385 195.675C171.389 197.453 167.472 198.53 163.186 198.53C159.963 198.53 156.948 197.921 154.377 196.862C154.231 196.826 154.106 196.796 153.994 196.769L153.994 196.769C153.507 196.651 153.275 196.596 152.667 196.353C151.207 195.772 150.447 195.213 149.231 194.318L149.039 194.177C147.826 193.285 147.197 192.707 146.137 191.638C144.72 190.208 144.019 189.303 142.872 187.648C141.932 186.29 140.696 184.02 140.696 184.02C140.696 184.02 139.263 181.192 138.519 179.304C137.436 176.552 137.038 174.925 136.343 172.049C135.834 169.943 135.587 168.75 135.255 166.608C134.776 163.516 134.529 158.628 134.529 158.628ZM186.53 181.544C187.15 181.599 187.777 181.601 188.402 181.548C189.671 181.442 190.897 181.114 191.991 180.589C193.086 180.063 194.024 179.352 194.738 178.506C195.453 177.66 195.927 176.699 196.128 175.69C196.329 174.681 196.252 173.65 195.901 172.668C195.551 171.686 194.936 170.777 194.1 170.005C193.263 169.233 192.226 168.617 191.061 168.2C190.904 168.144 190.745 168.092 190.585 168.044C190.524 168.426 190.46 168.796 190.392 169.148C189.61 173.198 189.062 175.49 187.49 179.304C187.148 180.134 186.837 180.865 186.53 181.544Z" fill="#0099FF"/>
<path d="M163.186 162.98C170.617 162.98 177.368 162.592 182.276 161.847C184.724 161.476 186.753 161.009 188.188 160.439C188.903 160.155 189.515 159.829 189.96 159.442C190.408 159.052 190.755 158.538 190.755 157.902C190.755 157.272 190.415 156.751 189.977 156.345C189.538 155.94 188.931 155.582 188.216 155.263C186.783 154.621 184.753 154.062 182.302 153.598C177.388 152.668 170.63 152.098 163.186 152.098C155.743 152.098 148.895 152.668 143.892 153.597C141.396 154.061 139.323 154.62 137.856 155.26C137.126 155.579 136.505 155.935 136.056 156.339C135.609 156.741 135.255 157.264 135.255 157.902C135.255 158.547 135.617 159.062 136.073 159.448C136.528 159.833 137.154 160.158 137.884 160.442C139.352 161.01 141.425 161.476 143.917 161.847C148.914 162.592 155.755 162.98 163.186 162.98Z" fill="#0099FF" stroke="white" stroke-width="1.45098"/>
<path d="M187.49 160.079C184.589 161.53 176.046 162.255 162.824 162.255C150.772 162.255 139.245 160.804 138.52 159.716C138.465 159.588 138.722 159.482 138.882 159.353C139.971 158.628 149.601 156.451 162.824 156.451C176.046 156.451 188.579 159.716 187.49 160.079Z" fill="#FFD600"/>
<path d="M164.194 181.241C164.579 181.241 164.771 181.421 164.771 181.78C164.771 181.977 164.711 182.14 164.592 182.268C163.453 183.484 161.818 184.092 159.686 184.092C157.555 184.092 155.864 183.514 154.614 182.358C153.373 181.203 152.752 179.674 152.752 177.774C152.752 176.533 153.052 175.411 153.651 174.409C154.259 173.399 155.08 172.612 156.116 172.047C157.161 171.482 158.316 171.199 159.583 171.199C161.356 171.199 162.721 171.657 163.68 172.573C164.185 173.061 164.437 173.63 164.437 174.281C164.437 174.666 164.275 174.992 163.95 175.257C163.633 175.522 163.252 175.655 162.807 175.655C162.361 175.655 162.04 175.617 161.844 175.54C161.784 174.572 161.582 173.832 161.24 173.318C160.906 172.796 160.341 172.535 159.545 172.535C158.244 172.535 157.221 172.95 156.476 173.78C155.74 174.611 155.372 175.728 155.372 177.132C155.372 178.536 155.842 179.756 156.784 180.792C157.734 181.827 158.929 182.345 160.367 182.345C161.214 182.345 162.254 182.046 163.487 181.447C163.753 181.31 163.988 181.241 164.194 181.241Z" fill="#1F1F1F"/>
<path d="M171.557 186.501C171.942 186.501 172.135 186.681 172.135 187.04C172.135 187.237 172.075 187.4 171.955 187.528C170.816 188.744 169.181 189.352 167.049 189.352C164.918 189.352 163.227 188.774 161.977 187.618C160.736 186.462 160.115 184.934 160.115 183.034C160.115 181.792 160.415 180.671 161.014 179.669C161.622 178.659 162.444 177.871 163.48 177.306C164.524 176.741 165.68 176.459 166.947 176.459C168.719 176.459 170.084 176.917 171.043 177.833C171.548 178.321 171.801 178.89 171.801 179.541C171.801 179.926 171.638 180.251 171.313 180.517C170.996 180.782 170.615 180.915 170.17 180.915C169.725 180.915 169.404 180.876 169.207 180.799C169.147 179.832 168.946 179.091 168.603 178.578C168.269 178.056 167.704 177.794 166.908 177.794C165.607 177.794 164.584 178.21 163.839 179.04C163.103 179.87 162.735 180.988 162.735 182.392C162.735 183.796 163.206 185.016 164.147 186.051C165.098 187.087 166.292 187.605 167.73 187.605C168.578 187.605 169.618 187.306 170.851 186.706C171.116 186.569 171.351 186.501 171.557 186.501Z" fill="#1F1F1F"/>
</g>
<defs>
<filter id="filter0_d_787_67" x="129.451" y="128.157" width="28.1896" height="22.011" filterUnits="userSpaceOnUse" color-interpolation-filters="sRGB">
<feFlood flood-opacity="0" result="BackgroundImageFix"/>
<feColorMatrix in="SourceAlpha" type="matrix" values="0 0 0 0 0 0 0 0 0 0 0 0 0 0 0 0 0 0 127 0" result="hardAlpha"/>
<feOffset dx="0.897541" dy="2.24385"/>
<feGaussianBlur stdDeviation="0.224385"/>
<feComposite in2="hardAlpha" operator="out"/>
<feColorMatrix type="matrix" values="0 0 0 0 0 0 0 0 0 0 0 0 0 0 0 0 0 0 0.42 0"/>
<feBlend mode="normal" in2="BackgroundImageFix" result="effect1_dropShadow_787_67"/>
<feBlend mode="normal" in="SourceGraphic" in2="effect1_dropShadow_787_67" result="shape"/>
</filter>
<filter id="filter1_d_787_67" x="163.549" y="118" width="32.6472" height="25.886" filterUnits="userSpaceOnUse" color-interpolation-filters="sRGB">
<feFlood flood-opacity="0" result="BackgroundImageFix"/>
<feColorMatrix in="SourceAlpha" type="matrix" values="0 0 0 0 0 0 0 0 0 0 0 0 0 0 0 0 0 0 127 0" result="hardAlpha"/>
<feOffset dy="2.90196"/>
<feGaussianBlur stdDeviation="1.45098"/>
<feComposite in2="hardAlpha" operator="out"/>
<feColorMatrix type="matrix" values="0 0 0 0 0 0 0 0 0 0 0 0 0 0 0 0 0 0 0.25 0"/>
<feBlend mode="normal" in2="BackgroundImageFix" result="effect1_dropShadow_787_67"/>
<feBlend mode="normal" in="SourceGraphic" in2="effect1_dropShadow_787_67" result="shape"/>
</filter>
<filter id="filter2_d_787_67" x="164.725" y="118" width="28.5699" height="22.7736" filterUnits="userSpaceOnUse" color-interpolation-filters="sRGB">
<feFlood flood-opacity="0" result="BackgroundImageFix"/>
<feColorMatrix in="SourceAlpha" type="matrix" values="0 0 0 0 0 0 0 0 0 0 0 0 0 0 0 0 0 0 127 0" result="hardAlpha"/>
<feOffset dx="-1.27686" dy="2.24176"/>
<feGaussianBlur stdDeviation="0.224902"/>
<feComposite in2="hardAlpha" operator="out"/>
<feColorMatrix type="matrix" values="0 0 0 0 0 0 0 0 0 0 0 0 0 0 0 0 0 0 0.25 0"/>
<feBlend mode="normal" in2="BackgroundImageFix" result="effect1_dropShadow_787_67"/>
<feBlend mode="normal" in="SourceGraphic" in2="effect1_dropShadow_787_67" result="shape"/>
</filter>
<filter id="filter3_d_787_67" x="124.373" y="149.921" width="81.2549" height="61.667" filterUnits="userSpaceOnUse" color-interpolation-filters="sRGB">
<feFlood flood-opacity="0" result="BackgroundImageFix"/>
<feColorMatrix in="SourceAlpha" type="matrix" values="0 0 0 0 0 0 0 0 0 0 0 0 0 0 0 0 0 0 127 0" result="hardAlpha"/>
<feOffset dy="2.17647"/>
<feGaussianBlur stdDeviation="1.81373"/>
<feComposite in2="hardAlpha" operator="out"/>
<feColorMatrix type="matrix" values="0 0 0 0 0 0 0 0 0 0 0 0 0 0 0 0 0 0 0.25 0"/>
<feBlend mode="normal" in2="BackgroundImageFix" result="effect1_dropShadow_787_67"/>
<feBlend mode="normal" in="SourceGraphic" in2="effect1_dropShadow_787_67" result="shape"/>
</filter>
<filter id="filter4_d_787_67" x="125.098" y="186.196" width="78.3527" height="25.3918" filterUnits="userSpaceOnUse" color-interpolation-filters="sRGB">
<feFlood flood-opacity="0" result="BackgroundImageFix"/>
<feColorMatrix in="SourceAlpha" type="matrix" values="0 0 0 0 0 0 0 0 0 0 0 0 0 0 0 0 0 0 127 0" result="hardAlpha"/>
<feOffset dy="2.90196"/>
<feGaussianBlur stdDeviation="1.45098"/>
<feComposite in2="hardAlpha" operator="out"/>
<feColorMatrix type="matrix" values="0 0 0 0 0 0 0 0 0 0 0 0 0 0 0 0 0 0 0.25 0"/>
<feBlend mode="normal" in2="BackgroundImageFix" result="effect1_dropShadow_787_67"/>
<feBlend mode="normal" in="SourceGraphic" in2="effect1_dropShadow_787_67" result="shape"/>
</filter>
</defs>
</svg>
