<svg width="65" height="120" viewBox="0 0 65 120" fill="none" xmlns="http://www.w3.org/2000/svg">
<path d="M24.8989 78H39.0789C40.2514 78.0005 41.3083 78.707 41.757 79.7904C42.2056 80.8737 41.9577 82.1206 41.1289 82.95L36.3589 87.72C35.8215 88.2721 35.5172 89.0097 35.5089 89.78V94.17C35.5073 95.0824 35.0779 95.9413 34.3489 96.49L33.1089 97.43C32.2287 98.0902 31.0507 98.1954 30.0675 97.7016C29.0842 97.2079 28.4651 96.2002 28.4689 95.1V89.78C28.4605 89.0097 28.1562 88.2721 27.6189 87.72L22.8489 82.95C22.02 82.1206 21.7721 80.8737 22.2208 79.7904C22.6694 78.707 23.7263 78.0005 24.8989 78Z" fill="black"/>
<path fill-rule="evenodd" clip-rule="evenodd" d="M24.9613 22.0007H39.1413V22.0107C40.3363 21.9899 41.4217 22.7043 41.875 23.8101C42.3284 24.9159 42.057 26.1866 41.1913 27.0107L36.4213 31.7807C35.8904 32.3125 35.5858 33.0292 35.5713 33.7807V38.1807C35.5698 39.0931 35.1403 39.9519 34.4113 40.5007L33.1713 41.4307C32.2944 42.0979 31.1144 42.2085 30.1288 41.7157C29.1432 41.2229 28.5237 40.2125 28.5313 39.1107V33.7807C28.5169 33.0292 28.2123 32.3125 27.6813 31.7807L22.9113 27.0107C22.0381 26.1878 21.7617 24.9122 22.2161 23.8018C22.6705 22.6913 23.7618 21.9753 24.9613 22.0007ZM40.4413 24.3707C40.2255 23.843 39.7114 23.4989 39.1413 23.5007H24.9613C24.3913 23.4989 23.8771 23.843 23.6613 24.3707C23.4386 24.8957 23.5618 25.5037 23.9713 25.9007L28.7613 30.6707C29.5904 31.4928 30.0551 32.6131 30.0513 33.7807V39.1107C30.046 39.4793 30.1873 39.835 30.4443 40.0994C30.7012 40.3639 31.0527 40.5154 31.4213 40.5207C31.7226 40.5193 32.0148 40.4172 32.2513 40.2307L33.4913 39.3007C33.8439 39.0363 34.0513 38.6213 34.0513 38.1807V33.7807C34.0529 32.6102 34.5249 31.4895 35.3613 30.6707L40.1313 25.9007C40.5409 25.5037 40.6641 24.8957 40.4413 24.3707Z" fill="black"/>
</svg>
