<svg width="65" height="120" viewBox="0 0 65 120" fill="none" xmlns="http://www.w3.org/2000/svg">
<path d="M30 83.3903H24C23.4477 83.3903 23 83.8381 23 84.3903C23 84.9426 23.4477 85.3903 24 85.3903H30C30.5523 85.3903 31 84.9426 31 84.3903C31 83.8381 30.5523 83.3903 30 83.3903Z" fill="black"/>
<path d="M28 90.1603C27.154 90.1578 26.3794 90.6342 26 91.3903H24C23.4477 91.3903 23 91.8381 23 92.3903C23 92.9426 23.4477 93.3903 24 93.3903H26C26.4954 94.3599 27.6208 94.8271 28.6572 94.4934C29.6936 94.1598 30.335 93.1238 30.1718 92.0473C30.0085 90.9709 29.0887 90.1717 28 90.1603Z" fill="black"/>
<path d="M33.72 86.4603C34.4939 86.4592 35.2108 86.0533 35.61 85.3903H40C40.5523 85.3903 41 84.9426 41 84.3903C41 83.8381 40.5523 83.3903 40 83.3903H35.78C35.3575 82.3513 34.229 81.7878 33.1446 82.0743C32.0601 82.3609 31.3573 83.4083 31.5032 84.5204C31.6491 85.6326 32.5984 86.4632 33.72 86.4603Z" fill="black"/>
<path d="M40 91.3903H32C31.4477 91.3903 31 91.8381 31 92.3903C31 92.9426 31.4477 93.3903 32 93.3903H40C40.5523 93.3903 41 92.9426 41 92.3903C41 91.8381 40.5523 91.3903 40 91.3903Z" fill="black"/>
<path fill-rule="evenodd" clip-rule="evenodd" d="M33.7691 30.6179C34.6701 30.5963 35.4749 30.0491 35.8263 29.2193C35.9013 29.2509 35.9815 29.2683 36.0629 29.2707H40.1771C40.6032 29.2707 40.9486 28.9253 40.9486 28.4993C40.9486 28.0734 40.6032 27.728 40.1771 27.728H36.1143C36.0699 27.7222 36.025 27.7222 35.9806 27.728C35.686 26.5706 34.5523 25.833 33.3746 26.0325C32.1969 26.232 31.3695 27.3017 31.4726 28.4916C31.5756 29.6814 32.5747 30.593 33.7691 30.5871V30.6179ZM33.7691 27.584C34.1838 27.584 34.52 27.9202 34.52 28.3348C34.52 28.7494 34.1838 29.0856 33.7691 29.0856C33.3545 29.0856 33.0183 28.7494 33.0183 28.3348C33.0183 27.9202 33.3545 27.584 33.7691 27.584Z" fill="black"/>
<path d="M23.7714 27.728H29.9429C30.3689 27.728 30.7143 28.0734 30.7143 28.4993C30.7143 28.9253 30.3689 29.2707 29.9429 29.2707H23.7714C23.3454 29.2707 23 28.9253 23 28.4993C23 28.0734 23.3454 27.728 23.7714 27.728Z" fill="black"/>
<path fill-rule="evenodd" clip-rule="evenodd" d="M25.736 35.9555C26.0582 35.0444 26.9192 34.4347 27.8857 34.4334V34.4128C29.0488 34.4114 30.029 35.2806 30.1663 36.4354C30.3037 37.5902 29.5548 38.6651 28.4237 38.9364C27.2927 39.2077 26.1376 38.5896 25.736 37.4981H23.7714C23.3454 37.4981 23 37.1528 23 36.7268C23 36.3008 23.3454 35.9555 23.7714 35.9555H25.736ZM27.1361 36.7809C27.1432 37.19 27.4765 37.5181 27.8857 37.5187V37.4776C28.3004 37.4776 28.6366 37.1414 28.6366 36.7268C28.6141 36.3183 28.2687 36.0029 27.8598 36.0177C27.4509 36.0324 27.129 36.3718 27.1361 36.7809Z" fill="black"/>
<path d="M32 35.9555H40.2286C40.6546 35.9555 41 36.3008 41 36.7268C41 37.1528 40.6546 37.4981 40.2286 37.4981H32C31.574 37.4981 31.2286 37.1528 31.2286 36.7268C31.2286 36.3008 31.574 35.9555 32 35.9555Z" fill="black"/>
</svg>
