<svg width="65" height="120" viewBox="0 0 65 120" fill="none" xmlns="http://www.w3.org/2000/svg">
<path d="M42.1 85.1C42 81.7 39.3 79 35.9 79C34.8 79 33.1 79.8 32.4 81.1C32.3 81.4 31.9 81.4 31.8 81.1C31 79.9 29.4 79.1 28.2 79.1C24.9 79.1 22.1 81.8 22 85.1V85.3C22 87 22.7 88.6 23.9 89.8C23.9 89.8 23.9 89.8 23.9 89.9C24 90 28.8 94.2 31 96.1C31.6 96.6 32.5 96.6 33.1 96.1C35.3 94.2 40 90 40.2 89.9C40.2 89.9 40.2 89.9 40.2 89.8C41.4 88.7 42.1 87.1 42.1 85.3V85.1Z" fill="black"/>
<path d="M32.1 40.8C31.6 40.8 31 40.6 30.6 40.2C24.1 34.5 24 34.4 24 34.3L23.9 34.2C22.7 33 22 31.3 22 29.6V29.4C22.1 25.8 25 23 28.6 23C29.7 23 31.2 23.6 32.1 24.8C33 23.6 34.6 23 35.7 23C39.3 23 42.1 25.8 42.3 29.4V29.6C42.3 31.4 41.6 33 40.4 34.3L40.3 34.4C40.2 34.5 39.4 35.2 33.7 40.3C33.2 40.6 32.7 40.8 32.1 40.8ZM25.5 34C25.9 34.4 27.9 35.8 31.6 39C31.9 39.3 32.3 39.3 32.6 39C36.4 35.6 38.6 33.7 39.1 33.3L39.2 33.2C40.2 32.2 40.7 30.9 40.7 29.6V29.4C40.6 26.6 38.4 24.5 35.6 24.5C34.9 24.5 33.5 25 33 26.1C32.8 26.5 32.4 26.7 32 26.7C31.6 26.7 31.2 26.5 31 26.1C30.5 25.1 29.2 24.5 28.4 24.5C25.7 24.5 23.4 26.7 23.3 29.4V29.7C23.3 31 23.9 32.3 24.8 33.2L25.5 34Z" fill="black"/>
</svg>
