<svg xmlns="http://www.w3.org/2000/svg" width="40" height="40" viewBox="0 0 40 40" fill="none">
<circle cx="13.3335" cy="13.3334" r="4" stroke="#413C3C" stroke-width="2" stroke-linecap="round"/>
<path d="M19.7577 14.25C20.1777 13.5226 20.8693 12.9919 21.6806 12.7745C22.4918 12.5572 23.3562 12.671 24.0835 13.0909C24.8108 13.5108 25.3416 14.2025 25.5589 15.0137C25.7763 15.8249 25.6625 16.6893 25.2426 17.4166C24.8227 18.144 24.131 18.6747 23.3198 18.8921C22.5085 19.1094 21.6442 18.9956 20.9168 18.5757C20.1895 18.1558 19.6588 17.4641 19.4414 16.6529C19.224 15.8417 19.3378 14.9773 19.7577 14.25L19.7577 14.25Z" stroke="#413C3C" stroke-width="2"/>
<path d="M22.4317 29.8394L23.4256 29.7289L22.4317 29.8394ZM21.4999 29.8334H5.16652V31.8334H21.4999V29.8334ZM5.22854 29.9499C5.36156 28.753 5.76563 26.6901 6.94936 24.9509C8.09415 23.2689 9.99896 21.8334 13.3332 21.8334V19.8334C9.28973 19.8334 6.78576 21.6367 5.29597 23.8256C3.8451 25.9573 3.38876 28.3975 3.24078 29.7289L5.22854 29.9499ZM13.3332 21.8334C16.6674 21.8334 18.5722 23.2689 19.717 24.9509C20.9007 26.6901 21.3048 28.753 21.4378 29.9499L23.4256 29.7289C23.2776 28.3975 22.8213 25.9573 21.3704 23.8256C19.8806 21.6367 17.3766 19.8334 13.3332 19.8334V21.8334ZM5.16652 29.8334C5.16144 29.8334 5.17547 29.8324 5.19426 29.8521C5.20378 29.862 5.21424 29.8773 5.22137 29.8978C5.22892 29.9195 5.22978 29.9387 5.22854 29.9499L3.24078 29.7289C3.10705 30.9322 4.08241 31.8334 5.16652 31.8334V29.8334ZM21.4999 31.8334C22.584 31.8334 23.5593 30.9322 23.4256 29.7289L21.4378 29.9499C21.4366 29.9387 21.4375 29.9195 21.445 29.8978C21.4521 29.8773 21.4626 29.862 21.4721 29.8521C21.4909 29.8324 21.5049 29.8334 21.4999 29.8334V31.8334Z" fill="#413C3C"/>
<path d="M28.9905 29.7455L28.0104 29.9439V29.9439L28.9905 29.7455ZM19.6675 23.3013L19.1317 22.457L18.1014 23.1108L18.9449 23.9926L19.6675 23.3013ZM22.4321 29.8394L21.4382 29.9498V29.9498L22.4321 29.8394ZM28.062 29.8333H21.5002V31.8333H28.062V29.8333ZM28.0104 29.9439C28.0087 29.9355 28.0077 29.9176 28.0135 29.8963C28.019 29.8764 28.0281 29.8616 28.0363 29.852C28.0529 29.8329 28.067 29.8333 28.062 29.8333V31.8333C29.225 31.8333 30.2251 30.8044 29.9706 29.5471L28.0104 29.9439ZM22.5003 23.5C24.3142 23.5 25.547 24.4758 26.4297 25.8238C27.3289 27.197 27.7918 28.8639 28.0104 29.9439L29.9706 29.5471C29.7321 28.369 29.2063 26.4131 28.1029 24.7281C26.983 23.0179 25.1992 21.5 22.5003 21.5V23.5ZM20.2033 24.1456C20.8269 23.7499 21.5762 23.5 22.5003 23.5V21.5C21.1879 21.5 20.0682 21.8626 19.1317 22.457L20.2033 24.1456ZM18.9449 23.9926C20.7275 25.856 21.2773 28.5024 21.4382 29.9498L23.426 29.7289C23.251 28.1548 22.6375 24.9593 20.3901 22.61L18.9449 23.9926ZM21.4382 29.9498C21.437 29.9387 21.4378 29.9195 21.4454 29.8978C21.4525 29.8773 21.463 29.862 21.4725 29.852C21.4913 29.8323 21.5053 29.8333 21.5002 29.8333V31.8333C22.5844 31.8333 23.5597 30.9322 23.426 29.7289L21.4382 29.9498Z" fill="#413C3C"/>
</svg>