<svg xmlns="http://www.w3.org/2000/svg" width="40" height="40" viewBox="0 0 40 40" fill="none">
  <path d="M14.8168 25.6712C13.9032 25.7829 13.2531 26.6142 13.3648 27.5278C13.4766 28.4415 14.3078 29.0916 15.2215 28.9798C16.1351 28.8681 16.7852 28.0368 16.6735 27.1232C16.5618 26.2095 15.7305 25.5594 14.8168 25.6712Z" fill="#E0E0E0"/>
  <path d="M9.24688 21.3151C9.13514 20.4014 9.78523 19.5702 10.6989 19.4584C11.6126 19.3467 12.4438 19.9968 12.5556 20.9105C12.6673 21.8241 12.0172 22.6554 11.1035 22.7671C10.1899 22.8789 9.35861 22.2288 9.24688 21.3151Z" fill="#E0E0E0"/>
  <path d="M13.1983 12.4364C12.2846 12.5482 11.6345 13.3794 11.7463 14.2931C11.858 15.2068 12.6893 15.8569 13.6029 15.7451C14.5166 15.6334 15.1667 14.8021 15.0549 13.8885C14.9432 12.9748 14.112 12.3247 13.1983 12.4364Z" fill="#E0E0E0"/>
  <path d="M26.1622 15.4685C26.0505 14.5548 26.7006 13.7236 27.6142 13.6118C28.5279 13.5001 29.3592 14.1502 29.4709 15.0639C29.5826 15.9775 28.9325 16.8088 28.0189 16.9205C27.1052 17.0323 26.2739 16.3822 26.1622 15.4685Z" fill="#E0E0E0"/>
  <path d="M19.9877 18.131C19.0741 18.2428 18.424 19.074 18.5357 19.9877C18.6475 20.9014 19.4787 21.5514 20.3924 21.4397C21.306 21.328 21.9561 20.4967 21.8444 19.5831C21.7327 18.6694 20.9014 18.0193 19.9877 18.131Z" fill="#E0E0E0"/>
  <path d="M18.9885 11.7283C18.8768 10.8146 19.5268 9.98339 20.4405 9.87165C21.3542 9.75991 22.1854 10.41 22.2972 11.3237C22.4089 12.2373 21.7588 13.0686 20.8452 13.1803C19.9315 13.2921 19.1002 12.642 18.9885 11.7283Z" fill="#E0E0E0"/>
  <path fill-rule="evenodd" clip-rule="evenodd" d="M3.75487 19.6062C3.97236 10.6342 11.4219 3.53725 20.3939 3.75475C29.3659 3.97224 36.4628 11.4218 36.2453 20.3938C36.2315 20.962 36.0405 21.4811 35.6887 21.9085C35.3521 22.3173 34.9164 22.5854 34.4865 22.7648C33.6498 23.1141 32.601 23.2237 31.5632 23.2307C27.0821 23.261 23.1898 27.1154 22.9355 31.6612C22.8761 32.7218 22.6953 33.8005 22.2389 34.6481C22.0025 35.087 21.6706 35.5045 21.2056 35.8068C20.7296 36.1163 20.1837 36.2592 19.6063 36.2452C10.6343 36.0277 3.53738 28.5782 3.75487 19.6062ZM20.3333 6.25401C12.7416 6.06998 6.43817 12.0751 6.25413 19.6668C6.0701 27.2584 12.0752 33.5619 19.6669 33.7459C19.7804 33.7487 19.8224 33.7242 19.8429 33.7109C19.8746 33.6903 19.948 33.6294 20.0377 33.4629C20.2333 33.0996 20.3869 32.4595 20.4394 31.5215C20.7635 25.73 25.6742 20.7704 31.5463 20.7307C32.4831 20.7244 33.1405 20.6176 33.5234 20.4578C33.6586 20.4013 33.7218 20.3536 33.7461 20.3319C33.9294 12.7408 27.9246 6.43803 20.3333 6.25401Z" fill="#E0E0E0"/>
</svg>