<svg xmlns="http://www.w3.org/2000/svg" width="40" height="40" viewBox="0 0 40 40" fill="none">
<path d="M20.0832 18.2667H14.8832C14.1928 18.2667 13.6332 17.7071 13.6332 17.0167C13.6332 16.3264 14.1928 15.7667 14.8832 15.7667H20.0832C20.7735 15.7667 21.3332 16.3264 21.3332 17.0167C21.3332 17.7071 20.7735 18.2667 20.0832 18.2667Z" fill="#413C3C"/>
<path d="M14.8832 20.95H25.1165C25.8069 20.95 26.3665 21.5097 26.3665 22.2C26.3665 22.8904 25.8069 23.45 25.1165 23.45H14.8832C14.1928 23.45 13.6332 22.8904 13.6332 22.2C13.6332 21.5097 14.1928 20.95 14.8832 20.95Z" fill="#413C3C"/>
<path d="M23.7165 25.8334H14.8832C14.1928 25.8334 13.6332 26.393 13.6332 27.0834C13.6332 27.7737 14.1928 28.3334 14.8832 28.3334H23.7165C24.4069 28.3334 24.9665 27.7737 24.9665 27.0834C24.9665 26.393 24.4069 25.8334 23.7165 25.8334Z" fill="#413C3C"/>
<path fill-rule="evenodd" clip-rule="evenodd" d="M23.7832 3.33338C25.1318 3.33151 26.2455 4.38659 26.3165 5.73338C30.2747 6.17843 33.2825 9.50057 33.3332 13.4834V30.3001C33.324 34.6685 29.785 38.2076 25.4165 38.2167H14.5832C10.2147 38.2076 6.67567 34.6685 6.6665 30.3001V13.4834C6.71719 9.50057 9.72498 6.17843 13.6832 5.73338C13.7623 4.39036 14.8712 3.33985 16.2165 3.33338H23.7832ZM23.8165 5.73338H16.2165V7.71671H23.8165V5.73338ZM30.8332 30.3001C30.8332 33.2943 28.4107 35.7242 25.4165 35.7334H14.5832C11.5889 35.7242 9.16648 33.2943 9.1665 30.3001V13.4834C9.17313 10.8315 11.0988 8.57434 13.7165 8.15005C13.9211 9.36897 14.9806 10.2589 16.2165 10.25H23.7832C25.0191 10.2589 26.0786 9.36897 26.2832 8.15005C28.9009 8.57434 30.8265 10.8315 30.8332 13.4834V30.3001Z" fill="#413C3C"/>
</svg>