<svg width="25" height="24" viewBox="0 0 25 24" fill="none" xmlns="http://www.w3.org/2000/svg">
<path d="M0.875 10.2145C0.875 6.24636 4.68025 3.25 9.07661 3.25C12.5752 3.25 15.6771 5.13375 16.8168 7.89933C16.868 8.02337 16.779 8.15792 16.6453 8.16898C16.273 8.19978 15.9032 8.25265 15.5388 8.32662C15.4457 8.34551 15.3519 8.29807 15.3103 8.2127C14.3466 6.23442 11.9796 4.75 9.07661 4.75C5.24215 4.75 2.375 7.31827 2.375 10.2145C2.375 11.7791 3.18892 13.224 4.5575 14.2455C4.74716 14.3871 4.85887 14.6099 4.85887 14.8465V15.7873L6.40651 15.357C6.5413 15.3196 6.68388 15.3205 6.81814 15.3598C7.42885 15.5387 8.08168 15.6474 8.76252 15.673C8.87056 15.6771 8.95758 15.764 8.96226 15.8721C8.98081 16.3 9.03811 16.7133 9.13038 17.1107C9.13844 17.1454 9.11228 17.1788 9.07661 17.1789C8.21758 17.1789 7.38762 17.0669 6.60677 16.8582L4.30975 17.4968C4.08391 17.5596 3.84171 17.5132 3.65509 17.3713C3.46846 17.2295 3.35887 17.0086 3.35887 16.7742V15.211C1.84901 13.9648 0.875 12.2016 0.875 10.2145Z" fill="black" fill-opacity="1"/>
<path d="M7.47986 8.25806C7.47986 8.84597 7.00326 9.32257 6.41535 9.32257C5.82743 9.32257 5.35083 8.84597 5.35083 8.25806C5.35083 7.67014 5.82743 7.19354 6.41535 7.19354C7.00326 7.19354 7.47986 7.67014 7.47986 8.25806Z" fill="black" fill-opacity="0.38"/>
<path d="M11.7379 9.32257C12.3258 9.32257 12.8024 8.84597 12.8024 8.25806C12.8024 7.67014 12.3258 7.19354 11.7379 7.19354C11.15 7.19354 10.6734 7.67014 10.6734 8.25806C10.6734 8.84597 11.15 9.32257 11.7379 9.32257Z" fill="black" fill-opacity="0.38"/>
<path d="M15.1709 15.1774C15.6854 15.1774 16.1024 14.7604 16.1024 14.246C16.1024 13.7315 15.6854 13.3145 15.1709 13.3145C14.6565 13.3145 14.2395 13.7315 14.2395 14.246C14.2395 14.7604 14.6565 15.1774 15.1709 15.1774Z" fill="black" fill-opacity="0.38"/>
<path d="M20.6266 14.246C20.6266 14.7604 20.2096 15.1774 19.6952 15.1774C19.1807 15.1774 18.7637 14.7604 18.7637 14.246C18.7637 13.7315 19.1807 13.3145 19.6952 13.3145C20.2096 13.3145 20.6266 13.7315 20.6266 14.246Z" fill="black" fill-opacity="0.38"/>
<path fill-rule="evenodd" clip-rule="evenodd" d="M17.4106 9.85853C21.121 9.85853 24.3702 12.3912 24.3702 15.7873C24.3702 17.4662 23.5616 18.7319 22.3051 19.7881V21.0322C22.3051 21.2666 22.1955 21.4876 22.0089 21.6294C21.8222 21.7712 21.58 21.8176 21.3542 21.7548L19.4727 21.2318C18.8211 21.4029 18.1299 21.4945 17.4153 21.4945C13.7048 21.4945 10.4556 18.9619 10.4556 15.5658C10.4556 12.1697 13.7001 9.85853 17.4106 9.85853ZM22.875 15.5658C22.875 13.2416 20.5639 11.1371 17.4153 11.1371C14.2667 11.1371 11.9556 13.2416 11.9556 15.5658C11.9556 17.89 14.2667 19.9945 17.4153 19.9945C18.0655 19.9945 18.687 19.9021 19.2622 19.7337C19.3965 19.6943 19.5391 19.6934 19.6739 19.7308L20.8051 20.0453V19.4259C20.8051 19.1892 20.9168 18.9664 21.1065 18.8248C22.221 17.9929 22.875 16.8237 22.875 15.5658Z" fill="black" fill-opacity="1"/>
</svg>
