<svg width="25" height="24" viewBox="0 0 25 24" fill="none" xmlns="http://www.w3.org/2000/svg">
<path fill-rule="evenodd" clip-rule="evenodd" d="M14.4329 5.53423C13.5623 4.69887 12.1878 4.69887 11.3172 5.53423L6.6908 9.97357C6.57745 10.0823 6.5012 10.224 6.47287 10.3785C5.91873 13.4004 5.87783 16.494 6.35187 19.5295L6.46439 20.25H9.44085V14.0387C9.44085 13.6244 9.77664 13.2887 10.1909 13.2887H15.5593C15.9735 13.2887 16.3093 13.6244 16.3093 14.0387V20.25H19.2857L19.3982 19.5295C19.8723 16.494 19.8314 13.4004 19.2773 10.3785C19.2489 10.224 19.1727 10.0823 19.0593 9.97357L14.4329 5.53423ZM10.2787 4.45191C11.7296 3.05965 14.0205 3.05965 15.4714 4.45191L20.0979 8.89125C20.4384 9.21804 20.6675 9.64373 20.7527 10.108C21.3372 13.2956 21.3803 16.559 20.8803 19.7609L20.6995 20.9184C20.6248 21.3971 20.2125 21.75 19.728 21.75H15.5593C15.1451 21.75 14.8093 21.4142 14.8093 21V14.7887H10.9409V21C10.9409 21.4142 10.6051 21.75 10.1909 21.75H6.02212C5.53764 21.75 5.12535 21.3971 5.0506 20.9184L4.86984 19.7609C4.36979 16.559 4.41294 13.2956 4.99747 10.108C5.0826 9.64373 5.31168 9.21804 5.65225 8.89125L10.2787 4.45191Z" fill="black" fill-opacity="0.33"/>
</svg>
