<svg width="25" height="24" viewBox="0 0 25 24" fill="none" xmlns="http://www.w3.org/2000/svg">
<g id="Icon">
<path fill-rule="evenodd" clip-rule="evenodd" d="M5.54435 6.0074C5.54435 2.68961 8.49061 0 12.125 0C15.7594 0 18.7056 2.68961 18.7056 6.0074C18.7056 9.3252 15.7594 12.0148 12.125 12.0148C8.49061 12.0148 5.54435 9.3252 5.54435 6.0074ZM12.125 2.12026C9.77334 2.12026 7.86694 3.86059 7.86694 6.0074C7.86694 8.15421 9.77334 9.89454 12.125 9.89454C14.4767 9.89454 16.3831 8.15421 16.3831 6.0074C16.3831 3.86059 14.4767 2.12026 12.125 2.12026Z" fill="black" fill-opacity="1"/>
<path fill-rule="evenodd" clip-rule="evenodd" d="M5.93145 16.2553C4.00736 16.2553 2.44758 17.6792 2.44758 19.4357V21.1154C2.44758 21.1409 2.46788 21.1627 2.49553 21.1669C8.87296 22.1174 15.377 22.1174 21.7545 21.1669C21.7821 21.1627 21.8024 21.1409 21.8024 21.1154V19.4357C21.8024 17.6792 20.2426 16.2553 18.3185 16.2553H17.7908C17.7499 16.2553 17.7094 16.2612 17.6706 16.2728L16.3304 16.6723C13.5978 17.4868 10.6522 17.4868 7.91956 16.6723L6.5794 16.2728C6.54061 16.2612 6.50006 16.2553 6.45925 16.2553H5.93145ZM0.125 19.4357C0.125 16.5082 2.72464 14.1351 5.93145 14.1351H6.45925C6.74491 14.1351 7.02878 14.1763 7.30034 14.2572L8.64049 14.6567C10.9047 15.3316 13.3453 15.3316 15.6095 14.6567L16.9497 14.2572C17.2212 14.1763 17.5051 14.1351 17.7908 14.1351H18.3185C21.5254 14.1351 24.125 16.5082 24.125 19.4357V21.1154C24.125 22.1801 23.2798 23.0879 22.1287 23.2594C15.5034 24.2469 8.74657 24.2469 2.12129 23.2594C0.970239 23.0879 0.125 22.18 0.125 21.1154V19.4357Z" fill="black" fill-opacity="1"/>
</g>
</svg>
