<svg width="102" height="121" viewBox="0 0 102 121" fill="none" xmlns="http://www.w3.org/2000/svg">
<path fill-rule="evenodd" clip-rule="evenodd" d="M34.5443 34.3616C37.3218 32.2042 39 29.3994 39 26.3333C39 19.5218 30.7173 14 20.5 14C10.2827 14 2 19.5218 2 26.3333C2 33.1448 10.2827 38.6667 20.5 38.6667C23.339 38.6667 26.0287 38.2403 28.4328 37.4785L35.7017 40.6277L34.5443 34.3616Z" fill="#FFD600"/>
<circle cx="12.2779" cy="26.3335" r="2.05556" fill="#090909"/>
<circle cx="20.4999" cy="26.3335" r="2.05556" fill="#090909"/>
<circle cx="28.7225" cy="26.3335" r="2.05556" fill="#090909"/>
<path fill-rule="evenodd" clip-rule="evenodd" d="M71.5 24.6667C81.7173 24.6667 90 19.1448 90 12.3333C90 5.52182 81.7173 0 71.5 0C61.2827 0 53 5.52182 53 12.3333C53 15.4132 54.6933 18.2293 57.4932 20.3906L57.4077 27.6807L63.7416 23.533C66.1011 24.2606 68.7294 24.6667 71.5 24.6667Z" fill="#FFD600"/>
<circle cx="63.2777" cy="12.3334" r="2.05556" fill="#090909"/>
<circle cx="71.4999" cy="12.3334" r="2.05556" fill="#090909"/>
<circle cx="79.7225" cy="12.3334" r="2.05556" fill="#090909"/>
<ellipse cx="50" cy="107.5" rx="50" ry="13.5" fill="#1F1F1F"/>
<path fill-rule="evenodd" clip-rule="evenodd" d="M9 56H87.5C87.5 56 87.3608 58.9477 87.0372 62.5158C88.1049 62.7381 89.1508 63.0313 90.1637 63.3936C92.8285 64.3468 95.2002 65.7551 97.1122 67.5197C99.0243 69.2842 100.43 71.3622 101.232 73.6077C102.033 75.8533 102.21 78.2119 101.751 80.518C101.291 82.8242 100.207 85.0219 98.5724 86.957C96.9383 88.892 94.7945 90.5174 92.2916 91.7191C89.7886 92.9208 86.9872 93.6696 84.0841 93.9129C81.8534 94.0999 79.6041 93.985 77.4298 93.5767C77.1405 94.0314 76.832 94.5034 76.5 95C76.1887 95.4657 75.8955 95.9104 75.614 96.3374L75.6139 96.3374C73.5962 99.3976 72.1787 101.547 69 104C67.1394 105.436 65.8494 106.161 63.9352 107.065C59.8063 109.516 54.4077 111 48.5 111C44.0567 111 39.9013 110.16 36.3576 108.701C36.1561 108.651 35.9836 108.61 35.8296 108.573C35.1578 108.411 34.8392 108.334 34 108C31.9883 107.199 30.9406 106.428 29.2651 105.195L29 105C27.3274 103.771 26.461 102.974 25 101.5C23.0466 99.5288 22.0805 98.2812 20.5 96C19.2032 94.1282 17.5 91 17.5 91C17.5 91 15.5242 87.1014 14.5 84.5C13.0063 80.7063 12.4579 78.4631 11.5 74.5C10.7982 71.5967 10.4574 69.9517 10 67C9.33948 62.7374 9 56 9 56ZM80.6761 87.5872C81.5309 87.6628 82.3959 87.6652 83.2564 87.593C85.0065 87.4463 86.6954 86.9949 88.2042 86.2705C89.7131 85.5461 91.0055 84.5662 91.9906 83.3997C92.9758 82.2332 93.6298 80.9083 93.9067 79.518C94.1836 78.1277 94.0768 76.7058 93.5937 75.3521C93.1107 73.9984 92.263 72.7457 91.1104 71.682C89.9577 70.6182 88.5279 69.7692 86.9214 69.1946C86.7054 69.1173 86.4869 69.0452 86.2662 68.9784C86.1823 69.5053 86.0936 70.0151 86 70.5C84.922 76.083 84.1666 79.2428 82 84.5C81.5286 85.6438 81.1001 86.6514 80.6761 87.5872Z" fill="#0099FF"/>
<path d="M48.5 62C58.7429 62 68.0482 61.4657 74.8131 60.4384C78.1864 59.9262 80.9838 59.2834 82.9615 58.4978C83.9466 58.1065 84.7904 57.656 85.4043 57.1226C86.0218 56.5859 86.5 55.8775 86.5 55C86.5 54.1319 86.0311 53.4134 85.4272 52.855C84.8219 52.2954 83.9855 51.8029 83.0007 51.3624C81.0245 50.4785 78.2274 49.7069 74.8488 49.0677C68.0752 47.7862 58.76 47 48.5 47C38.2398 47 28.801 47.7862 21.9044 49.0671C18.4643 49.706 15.6068 50.4768 13.5858 51.3587C12.579 51.7981 11.7236 52.2887 11.1044 52.8458C10.4887 53.3997 10 54.1205 10 55C10 55.8893 10.4986 56.5995 11.1275 57.1314C11.755 57.662 12.6175 58.1107 13.6244 58.5009C15.6468 59.2846 18.5045 59.9268 21.9396 60.4388C28.8278 61.4656 38.2568 62 48.5 62Z" fill="#0099FF" stroke="white" stroke-width="2"/>
<path d="M82 58C78.0003 60 66.2252 61 47.9997 61C31.3887 61 15.5 59 14.5 57.5C14.4241 57.3242 14.7782 57.1772 14.9997 57C16.4999 56 29.7742 53 47.9997 53C66.2252 53 83.5003 57.5 82 58Z" fill="#FFD600"/>
<path d="M49.7394 87.5485C50.2704 87.5485 50.5359 87.7963 50.5359 88.2919C50.5359 88.5633 50.4533 88.7875 50.2881 88.9645C48.7187 90.6401 46.4648 91.4779 43.5266 91.4779C40.5884 91.4779 38.2579 90.6814 36.535 89.0884C34.824 87.4954 33.9685 85.389 33.9685 82.7694C33.9685 81.0584 34.3815 79.5126 35.2075 78.132C36.0453 76.7395 37.1781 75.6539 38.606 74.8751C40.0456 74.0963 41.6386 73.7069 43.385 73.7069C45.8276 73.7069 47.7098 74.3382 49.0314 75.6008C49.7276 76.2734 50.0757 77.0581 50.0757 77.955C50.0757 78.486 49.8515 78.9344 49.4031 79.3002C48.9665 79.666 48.4414 79.8489 47.8278 79.8489C47.2142 79.8489 46.7716 79.7958 46.5002 79.6896C46.4176 78.3562 46.1403 77.3354 45.6683 76.6274C45.2081 75.9076 44.4293 75.5477 43.3319 75.5477C41.5383 75.5477 40.1282 76.12 39.1016 77.2646C38.0868 78.4093 37.5793 79.9492 37.5793 81.8844C37.5793 83.8196 38.2284 85.5011 39.5264 86.929C40.8362 88.3568 42.4823 89.0707 44.4647 89.0707C45.6329 89.0707 47.0667 88.6577 48.7659 87.8317C49.1317 87.6429 49.4562 87.5485 49.7394 87.5485Z" fill="#1F1F1F"/>
<path d="M59.8893 94.7985C60.4203 94.7985 60.6858 95.0463 60.6858 95.5419C60.6858 95.8133 60.6032 96.0375 60.438 96.2145C58.8686 97.8901 56.6147 98.7279 53.6765 98.7279C50.7383 98.7279 48.4078 97.9314 46.6849 96.3384C44.9739 94.7454 44.1184 92.639 44.1184 90.0194C44.1184 88.3084 44.5314 86.7626 45.3574 85.382C46.1952 83.9895 47.328 82.9039 48.7559 82.1251C50.1955 81.3463 51.7885 80.9569 53.5349 80.9569C55.9775 80.9569 57.8597 81.5882 59.1813 82.8508C59.8775 83.5234 60.2256 84.3081 60.2256 85.205C60.2256 85.736 60.0014 86.1844 59.553 86.5502C59.1164 86.916 58.5913 87.0989 57.9777 87.0989C57.3641 87.0989 56.9215 87.0458 56.6501 86.9396C56.5675 85.6062 56.2902 84.5854 55.8182 83.8774C55.358 83.1576 54.5792 82.7977 53.4818 82.7977C51.6882 82.7977 50.2781 83.37 49.2515 84.5146C48.2367 85.6593 47.7292 87.1992 47.7292 89.1344C47.7292 91.0696 48.3783 92.7511 49.6763 94.179C50.9861 95.6068 52.6322 96.3207 54.6146 96.3207C55.7828 96.3207 57.2166 95.9077 58.9158 95.0817C59.2816 94.8929 59.6061 94.7985 59.8893 94.7985Z" fill="#1F1F1F"/>
</svg>
