<svg width="48" height="46" viewBox="0 0 48 46" fill="none" xmlns="http://www.w3.org/2000/svg">
<g id="&#240;&#159;&#166;&#134; icon &#34;calender&#34;">
<path id="Vector" d="M0 38.9904C0 42.8894 3.12 45.871 7.2 45.871H40.8C44.88 45.871 48 42.8894 48 38.9904V20.642H0V38.9904ZM40.8 4.5871H36V2.29355C36 0.917421 35.04 0 33.6 0C32.16 0 31.2 0.917421 31.2 2.29355V4.5871H16.8V2.29355C16.8 0.917421 15.84 0 14.4 0C12.96 0 12 0.917421 12 2.29355V4.5871H7.2C3.12 4.5871 0 7.56872 0 11.4678V16.0549H48V11.4678C48 7.56872 44.88 4.5871 40.8 4.5871Z" fill="#0954B0"/>
</g>
</svg>
