<svg width="19" height="22" viewBox="0 0 19 22" fill="none" xmlns="http://www.w3.org/2000/svg">
<g id="&#240;&#159;&#166;&#134; icon &#34;Calendar Check&#34;">
<path id="Vector" d="M18.4911 6.78571H0.508929C0.227873 6.78571 0 6.55784 0 6.27679V4.75C0 3.62569 0.911406 2.71429 2.03571 2.71429H4.07143V0.508929C4.07143 0.227873 4.2993 0 4.58036 0H6.27679C6.55784 0 6.78571 0.227873 6.78571 0.508929V2.71429H12.2143V0.508929C12.2143 0.227873 12.4422 0 12.7232 0H14.4196C14.7007 0 14.9286 0.227873 14.9286 0.508929V2.71429H16.9643C18.0886 2.71429 19 3.62569 19 4.75V6.27679C19 6.55784 18.7721 6.78571 18.4911 6.78571ZM0.508929 8.14286H18.4911C18.7721 8.14286 19 8.37073 19 8.65179V19.6786C19 20.8029 18.0886 21.7143 16.9643 21.7143H2.03571C0.911406 21.7143 0 20.8029 0 19.6786V8.65179C0 8.37073 0.227873 8.14286 0.508929 8.14286ZM14.6442 12.212L13.4496 11.0077C13.2517 10.8081 12.9294 10.8068 12.7299 11.0048L8.23277 15.4657L6.28272 13.4999C6.08479 13.3003 5.76251 13.299 5.56297 13.497L4.35863 14.6917C4.15909 14.8896 4.15778 15.2119 4.35575 15.4114L7.85892 18.9429C8.05685 19.1425 8.37908 19.1438 8.57863 18.9458L14.6414 12.9317C14.8409 12.7338 14.8422 12.4116 14.6442 12.212Z" fill="black"/>
</g>
</svg>
