<svg width="23" height="23" viewBox="0 0 23 23" fill="none" xmlns="http://www.w3.org/2000/svg">
<g id="ph:clock-fill">
<path id="Vector" d="M11.5 2.15625C9.65198 2.15625 7.84547 2.70425 6.30889 3.73096C4.77232 4.75766 3.57471 6.21695 2.8675 7.9243C2.1603 9.63165 1.97526 11.5104 2.33579 13.3229C2.69632 15.1354 3.58623 16.8003 4.89298 18.107C6.19972 19.4138 7.86462 20.3037 9.67713 20.6642C11.4896 21.0247 13.3684 20.8397 15.0757 20.1325C16.783 19.4253 18.2423 18.2277 19.269 16.6911C20.2958 15.1545 20.8438 13.348 20.8438 11.5C20.8411 9.02269 19.8559 6.64759 18.1041 4.89586C16.3524 3.14413 13.9773 2.15887 11.5 2.15625ZM16.5313 12.2188H11.5C11.3094 12.2188 11.1266 12.143 10.9918 12.0082C10.857 11.8734 10.7813 11.6906 10.7813 11.5V6.46875C10.7813 6.27813 10.857 6.09531 10.9918 5.96052C11.1266 5.82573 11.3094 5.75 11.5 5.75C11.6906 5.75 11.8734 5.82573 12.0082 5.96052C12.143 6.09531 12.2188 6.27813 12.2188 6.46875V10.7812H16.5313C16.7219 10.7812 16.9047 10.857 17.0395 10.9918C17.1743 11.1266 17.25 11.3094 17.25 11.5C17.25 11.6906 17.1743 11.8734 17.0395 12.0082C16.9047 12.143 16.7219 12.2188 16.5313 12.2188Z" fill="black"/>
</g>
</svg>
