<svg width="24" height="24" viewBox="0 0 24 24" fill="none" xmlns="http://www.w3.org/2000/svg">
<g clip-path="url(#clip0_184_1659)">
<path d="M11.9999 24C10.576 24.0031 9.20806 23.4456 8.19193 22.448L4.24993 18.805C3.20477 17.7905 2.37152 16.5784 1.79855 15.2392C1.22557 13.9 0.924279 12.4604 0.912155 11.0038C0.900031 9.54722 1.17732 8.10275 1.72792 6.75421C2.27853 5.40567 3.09148 4.17991 4.11961 3.14807C5.14774 2.11623 6.37056 1.29887 7.71711 0.743415C9.06367 0.187959 10.5071 -0.0945259 11.9637 -0.0876458C13.4203 -0.0807657 14.8611 0.215342 16.2023 0.783494C17.5436 1.35164 18.7586 2.18052 19.7769 3.22203C21.8397 5.28491 22.9986 8.08273 22.9986 11C22.9986 13.9173 21.8397 16.7151 19.7769 18.778L15.7859 22.467C14.7739 23.4549 13.4142 24.0055 11.9999 24ZM11.9999 2.00003C10.2199 2.00001 8.47982 2.52784 6.99976 3.51678C5.5197 4.50571 4.36614 5.91132 3.68494 7.55587C3.00375 9.20041 2.82552 11.01 3.17279 12.7559C3.52007 14.5017 4.37725 16.1054 5.63593 17.364L9.56993 21C10.2207 21.6218 11.0851 21.9704 11.9851 21.9739C12.8852 21.9775 13.7523 21.6357 14.4079 21.019L18.3919 17.337C20.0674 15.6465 21.005 13.3612 20.9996 10.981C20.9941 8.60092 20.0461 6.31987 18.3629 4.63703C17.5294 3.79857 16.5378 3.13378 15.4456 2.68114C14.3534 2.2285 13.1822 1.99699 11.9999 2.00003ZM11.9999 18C10.6155 18 9.26209 17.5895 8.11094 16.8203C6.9598 16.0511 6.06259 14.9579 5.53278 13.6788C5.00296 12.3997 4.86434 10.9923 5.13444 9.6344C5.40453 8.27653 6.07122 7.02925 7.05019 6.05028C8.02915 5.07131 9.27643 4.40463 10.6343 4.13453C11.9922 3.86443 13.3996 4.00306 14.6787 4.53287C15.9578 5.06268 17.0511 5.95989 17.8202 7.11104C18.5894 8.26218 18.9999 9.61556 18.9999 11C18.9978 12.8559 18.2596 14.6351 16.9473 15.9474C15.635 17.2597 13.8558 17.9979 11.9999 18ZM11.9999 6.00003C11.011 6.00003 10.0443 6.29327 9.22208 6.84268C8.39984 7.39209 7.75897 8.17298 7.38054 9.08661C7.0021 10.0002 6.90308 11.0056 7.09601 11.9755C7.28893 12.9454 7.76514 13.8363 8.4644 14.5356C9.16366 15.2348 10.0546 15.711 11.0245 15.904C11.9944 16.0969 12.9997 15.9979 13.9134 15.6194C14.827 15.241 15.6079 14.6001 16.1573 13.7779C16.7067 12.9556 16.9999 11.9889 16.9999 11C16.9983 9.67443 16.4711 8.40359 15.5337 7.46625C14.5964 6.52891 13.3255 6.00162 11.9999 6.00003ZM13.7069 12.707C13.8944 12.5195 13.9997 12.2652 13.9997 12C13.9997 11.7349 13.8944 11.4806 13.7069 11.293L12.9999 10.586V9.00003C12.9999 8.73481 12.8946 8.48046 12.707 8.29292C12.5195 8.10538 12.2652 8.00003 11.9999 8.00003C11.7347 8.00003 11.4804 8.10538 11.2928 8.29292C11.1053 8.48046 10.9999 8.73481 10.9999 9.00003V11C11 11.2652 11.1054 11.5195 11.2929 11.707L12.2929 12.707C12.4805 12.8945 12.7348 12.9998 12.9999 12.9998C13.2651 12.9998 13.5194 12.8945 13.7069 12.707Z" fill="#374957"/>
</g>
<defs>
<clipPath id="clip0_184_1659">
<rect width="24" height="24" fill="white"/>
</clipPath>
</defs>
</svg>
