<svg width="24" height="24" viewBox="0 0 24 24" fill="none" xmlns="http://www.w3.org/2000/svg">
<g clip-path="url(#clip0_184_1593)">
<path d="M23.0001 5C23.0001 4.20435 22.684 3.44129 22.1214 2.87868C21.5588 2.31607 20.7957 2 20.0001 2H19.8291C19.6215 1.41549 19.2382 0.909511 18.7317 0.551443C18.2252 0.193376 17.6204 0.000756748 17.0001 0L7.00008 0C6.37981 0.000756748 5.77495 0.193376 5.26847 0.551443C4.76198 0.909511 4.37866 1.41549 4.17108 2H4.00008C3.39395 2.00399 2.80324 2.1915 2.30578 2.53783C1.80831 2.88415 1.42742 3.37305 1.21329 3.94011C0.99915 4.50717 0.961811 5.1258 1.10619 5.7145C1.25056 6.3032 1.56988 6.83435 2.02208 7.238L3.57008 19.62C3.72263 20.8286 4.31058 21.9402 5.2238 22.7464C6.13702 23.5527 7.31287 23.9984 8.53108 24H15.4691C16.6872 23.9982 17.863 23.5524 18.7761 22.7462C19.6893 21.94 20.2773 20.8285 20.4301 19.62L21.9781 7.238C22.2979 6.95918 22.5545 6.6153 22.7307 6.22935C22.907 5.84341 22.9988 5.42428 23.0001 5ZM19.1171 14H15.9171C15.0251 8.713 8.97008 8.716 8.07908 14H4.87908L4.12908 8H19.8671L19.1171 14ZM14.0001 15C13.8951 18.954 10.1051 18.953 10.0001 15C10.1051 11.046 13.9001 11.047 14.0001 15ZM4.00008 4H5.00008C5.2653 4 5.51965 3.89464 5.70719 3.70711C5.89472 3.51957 6.00008 3.26522 6.00008 3C6.00008 2.73478 6.10544 2.48043 6.29297 2.29289C6.48051 2.10536 6.73486 2 7.00008 2H17.0001C17.2653 2 17.5197 2.10536 17.7072 2.29289C17.8947 2.48043 18.0001 2.73478 18.0001 3C18.0001 3.26522 18.1054 3.51957 18.293 3.70711C18.4805 3.89464 18.7349 4 19.0001 4H20.0001C20.2653 4 20.5197 4.10536 20.7072 4.29289C20.8947 4.48043 21.0001 4.73478 21.0001 5C21.0001 5.26522 20.8947 5.51957 20.7072 5.70711C20.5197 5.89464 20.2653 6 20.0001 6H4.00008C3.73486 6 3.48051 5.89464 3.29297 5.70711C3.10544 5.51957 3.00008 5.26522 3.00008 5C3.00008 4.73478 3.10544 4.48043 3.29297 4.29289C3.48051 4.10536 3.73486 4 4.00008 4ZM18.4451 19.372C18.3544 20.0974 18.002 20.7648 17.454 21.2487C16.906 21.7326 16.2002 21.9998 15.4691 22H8.53108C7.79983 22 7.09374 21.733 6.54554 21.2491C5.99733 20.7651 5.64475 20.0976 5.55408 19.372L5.13308 16H8.08108C8.97308 21.287 15.0291 21.284 15.9191 16H18.8671L18.4451 19.372Z" fill="#374957"/>
</g>
<defs>
<clipPath id="clip0_184_1593">
<rect width="24" height="24" fill="white"/>
</clipPath>
</defs>
</svg>
