<svg width="24" height="24" viewBox="0 0 24 24" fill="none" xmlns="http://www.w3.org/2000/svg">
<path d="M6.42881 2.41297C6.70117 2.10089 6.66898 1.62711 6.3569 1.35475C6.04483 1.08238 5.57105 1.11458 5.29868 1.42665L4.00688 2.90682C3.27411 3.74643 2.85988 4.81695 2.83665 5.9311L2.77997 8.64876C2.77133 9.06288 3.10004 9.4056 3.51417 9.41423C3.92829 9.42287 4.271 9.09416 4.27964 8.68003L4.33632 5.96238C4.35222 5.20006 4.63564 4.4676 5.137 3.89314L6.42881 2.41297Z" fill="black"/>
<path fill-rule="evenodd" clip-rule="evenodd" d="M6.23701 7.70074C6.37591 5.48001 8.21751 3.75 10.4426 3.75H11V3C11 2.44772 11.4477 2 12 2C12.5523 2 13 2.44772 13 3V3.75H13.5574C15.7825 3.75 17.6241 5.48001 17.763 7.70074L17.984 11.2342C18.0682 12.5814 18.5205 13.8797 19.2916 14.9876C19.9883 15.9886 19.368 17.3712 18.1571 17.5165L14.75 17.9254V19C14.75 20.5188 13.5188 21.75 12 21.75C10.4812 21.75 9.25 20.5188 9.25 19V17.9254L5.84287 17.5165C4.63194 17.3712 4.01172 15.9886 4.7084 14.9876C5.47946 13.8797 5.93175 12.5814 6.01601 11.2342L6.23701 7.70074ZM10.4426 5.25C9.00958 5.25 7.82354 6.36417 7.73409 7.79438L7.51309 11.3278C7.41169 12.949 6.86744 14.5112 5.93959 15.8444C5.88923 15.9168 5.93406 16.0167 6.02159 16.0272L9.75925 16.4757C11.2477 16.6543 12.7522 16.6543 14.2407 16.4757L17.9784 16.0272C18.0659 16.0167 18.1108 15.9168 18.0604 15.8444C17.1325 14.5112 16.5883 12.949 16.4869 11.3278L16.2659 7.79438C16.1764 6.36417 14.9904 5.25 13.5574 5.25H10.4426ZM12 20.25C11.3096 20.25 10.75 19.6904 10.75 19V18.25H13.25V19C13.25 19.6904 12.6904 20.25 12 20.25Z" fill="black"/>
<path d="M17.6431 1.35475C17.331 1.62711 17.2988 2.10089 17.5712 2.41297L18.863 3.89314C19.3644 4.4676 19.6478 5.20006 19.6637 5.96238L19.7204 8.68003C19.729 9.09416 20.0717 9.42287 20.4858 9.41423C20.9 9.4056 21.2287 9.06288 21.22 8.64876L21.1633 5.9311C21.1401 4.81695 20.7259 3.74643 19.9931 2.90682L18.7013 1.42665C18.4289 1.11458 17.9552 1.08238 17.6431 1.35475Z" fill="black"/>
</svg>
