<svg width="393" height="852" viewBox="0 0 393 852" fill="none" xmlns="http://www.w3.org/2000/svg">
<mask id="mask0_872_4870" style="mask-type:alpha" maskUnits="userSpaceOnUse" x="-41" y="-201" width="456" height="1186">
<path d="M-35.6374 -109.875L-36 -108.975V-108.006V975V980H-31H405H410V975V-97.9504V-97.9609C410 -98.015 410 -98.0697 409.999 -98.1249L400.741 -98.0526L400.662 -98.052L400 -98.0618C400 -98.0625 400 -98.0632 400 -98.0639C400.005 -98.3861 400.06 -98.5659 400.058 -98.5664C400.057 -98.5668 399.993 -98.3665 399.743 -97.9216C399.346 -97.2162 398.676 -96.2386 397.677 -94.996C395.689 -92.5236 392.71 -89.3853 388.896 -85.8358C381.287 -78.7531 370.689 -70.3407 358.887 -62.7388C347.063 -55.1229 334.224 -48.447 322.121 -44.679C309.906 -40.876 299.18 -40.2624 291.032 -43.7259C281.884 -47.6148 268.061 -56.7142 252.156 -68.551C236.377 -80.2943 218.933 -94.4367 202.663 -108.1C186.4 -121.757 171.348 -134.901 160.36 -144.633C154.867 -149.498 150.392 -153.509 147.291 -156.301C145.741 -157.698 144.535 -158.79 143.717 -159.532C143.308 -159.903 142.996 -160.186 142.786 -160.376L142.55 -160.591L142.492 -160.645L142.477 -160.658L142.474 -160.661C142.473 -160.662 142.473 -160.662 139.102 -156.969L142.473 -160.662L142.272 -160.846L142.052 -161.006C136.896 -164.774 132.547 -168.67 128.372 -172.519C127.804 -173.043 127.236 -173.569 126.668 -174.095C123.124 -177.376 119.573 -180.664 115.832 -183.582C106.854 -190.586 96.5943 -195.622 80.6513 -195.993C76.0766 -196.1 70.997 -194.886 65.8141 -192.959C60.5752 -191.011 54.9197 -188.214 49.0994 -184.869C37.4586 -178.18 24.8101 -169.093 12.9825 -159.564C1.14293 -150.025 -9.98561 -139.953 -18.5878 -131.232C-22.8861 -126.875 -26.5983 -122.809 -29.4677 -119.282C-32.238 -115.877 -34.5406 -112.596 -35.6374 -109.875Z" fill="#0099FF" stroke="black" stroke-width="10"/>
</mask>
<g mask="url(#mask0_872_4870)">
<rect x="-150" y="-152" width="671" height="966" fill="#0099FF"/>
<path d="M136.263 312.937C127.915 313.534 121.113 309.769 114.874 304.818C108.005 299.359 104.344 291.958 103.274 283.189C102.301 275.221 103.92 267.834 108.116 261.061C111.711 255.262 116.597 251.036 122.799 248.179C127.44 246.039 132.186 244.746 137.228 245.041C148.012 245.684 157.28 249.517 164.06 258.543C166.065 261.212 167.692 264.054 169.043 267.063C170.38 270.05 170.521 273.361 170.833 276.581C171.873 287.286 168.011 296.162 160.585 303.525C155.898 308.174 150.21 310.896 143.786 312.325C141.246 312.892 138.773 312.763 136.27 312.93L136.263 312.937Z" fill="white" fill-opacity="0.25"/>
<path d="M208.023 210.895C208.023 213.181 207.955 215.468 208.045 217.747C208.157 220.686 210.926 222.453 213.56 221.206C217.426 219.38 221.575 218.43 225.597 217.064C227.343 216.47 229.134 215.98 230.948 215.668C234.082 215.134 239.276 216.566 241.172 221.02C242.306 223.693 243.045 226.432 243.127 229.372C243.246 233.789 242.575 238.235 243.791 242.622C244.134 243.877 244.634 244.359 245.895 244.426C248.686 244.567 250.948 243.023 253.433 242.199C257.343 240.908 261.127 239.274 265.238 238.591C268.186 238.101 273.067 239.571 274.276 241.516C275.134 242.89 275.313 244.293 274.358 245.651C273.373 247.047 271.932 248.116 270.253 247.655C267.261 246.839 264.641 247.945 261.985 248.784C257.582 250.187 253.276 251.857 248.88 253.282C240.955 255.843 235.575 251.278 234.507 243.84C233.843 239.2 233.545 234.523 233.821 229.854C234.06 225.712 231.373 224.227 227.306 225.823C223.008 227.508 218.634 229.038 214.276 230.53C211.679 231.42 208.545 231.562 205.873 230.559C202.888 229.438 201.396 226.729 200.179 223.834C198.874 220.746 199.702 217.531 199.179 214.391C198.672 211.385 198.597 208.274 198.687 205.186C198.747 203.264 196.374 201.66 194.396 202.321C190.418 203.65 186.545 205.32 182.523 206.515C179.224 207.495 175.993 209.054 172.292 208.081C168.329 207.042 166.471 204.184 165.217 200.71C164.225 197.956 164.172 195.016 164.105 192.166C164.023 188.84 163.56 185.544 163.62 182.211C163.657 180.288 161.381 179.041 159.553 179.65C154.023 181.491 148.501 183.376 142.897 184.958C137.867 186.375 132.964 184.163 130.882 179.769C130.158 178.247 129.74 176.599 129.658 174.839C129.389 169.324 128.949 163.816 128.591 158.308C128.501 156.89 127.8 155.784 126.912 154.73C125.762 153.371 125.703 151.166 126.718 149.748C127.874 148.138 129.673 147.685 131.546 148.204C134.979 149.147 136.322 151.589 137.24 154.767C138.367 158.649 138.285 162.554 138.27 166.481C138.255 168.827 138.546 171.135 138.994 173.422C139.404 175.485 140.695 176.324 142.732 175.656C147.359 174.149 151.949 172.56 156.568 171.031C160.762 169.643 164.889 169.123 168.74 172.063C171.15 173.904 172.113 176.421 172.635 179.293C173.277 182.834 172.799 186.405 173.262 189.961C173.516 191.884 173.672 193.866 173.777 195.825C173.911 198.342 176.516 199.418 179.277 198.223C183.583 196.36 188 194.727 192.508 193.487C196.963 192.262 201.575 192.158 205.03 196.063C207.127 198.438 207.761 201.504 208.015 204.57C208.187 206.656 208.045 208.764 208.053 210.865L208.023 210.895Z" fill="white" fill-opacity="0.25"/>
<path d="M67.4332 165.132C79.2014 164.289 90.5413 174.904 89.9803 187.401C89.4339 199.544 80.6779 208.977 67.5735 208.999C56.0268 209.022 46.1708 199.469 46.001 185.428C45.8903 175.92 58.0054 163.626 67.4406 165.124L67.4332 165.132Z" fill="white" fill-opacity="0.25"/>
<path d="M351.457 243.698C351.048 244.16 350.743 244.541 350.4 244.884C347.773 247.525 345.176 250.181 342.505 252.77C341.381 253.859 341.024 254.53 342.467 255.858C345.496 258.656 348.235 261.767 351.1 264.744C351.442 265.102 351.77 265.497 352.172 265.773C354.866 267.623 354.233 268.534 352.521 270.287C348.198 274.733 343.792 279.097 339.379 283.454C338.419 284.402 337.414 285.603 336.224 285.946C334.832 286.342 334.326 284.432 333.24 283.798C332.25 283.223 331.52 282.38 330.732 281.604C323.267 274.263 315.803 266.922 308.347 259.566C306.516 257.761 306.575 257.798 308.384 256.023C312.841 251.621 317.247 247.174 321.675 242.743C326.013 238.401 330.36 234.067 334.683 229.71C335.375 229.008 335.852 228.628 336.782 229.523C341.269 233.865 345.839 238.132 350.363 242.43C350.75 242.803 351.078 243.243 351.465 243.698H351.457Z" fill="white" fill-opacity="0.25"/>
<path d="M296 107.559C308.687 106.602 321.336 105.223 334 104C334 112.757 334 121.506 333.993 130.263C333.993 132.784 333.779 132.992 331.245 133C320.445 133 309.652 133 298.851 133C296.243 133 296.067 132.814 296.059 130.122C296.037 122.604 296.022 115.077 296 107.559Z" fill="white" fill-opacity="0.25"/>
<path d="M188.678 158.997C187.862 159.035 187.54 158.628 187.165 158.304C183.524 155.16 180.213 151.67 176.812 148.27C173.809 145.262 170.85 142.209 167.793 139.253C166.834 138.326 166.67 137.761 167.718 136.721C174.033 130.479 180.288 124.176 186.513 117.851C187.645 116.698 188.416 116.743 189.622 117.821C196.499 123.905 202.881 130.501 209.391 136.962C210.56 138.115 209.818 138.839 209.069 139.608C206.837 141.884 204.574 144.138 202.327 146.393C198.979 149.762 195.623 153.125 192.274 156.494C191.165 157.61 189.847 158.394 188.663 158.997H188.678Z" fill="white" fill-opacity="0.25"/>
<path d="M19.2136 118.071C25.8196 117.662 31.3297 123.432 30.9849 128.854C30.5864 135.176 26.2641 140.015 19.8344 139.999C13.0597 139.984 7.74887 134.941 8.00944 128.414C8.1857 124.091 12.9754 117.223 19.2059 118.071H19.2136ZM19.6504 136.214C22.7695 136.41 26.7086 133.957 26.6779 129.202C26.6473 124.742 23.7275 121.925 19.0757 121.85C15.5427 121.797 12.1095 125.106 12.2321 128.785C12.37 132.988 14.9833 136.115 19.6581 136.214H19.6504Z" fill="white" fill-opacity="0.25"/>
<path d="M262.234 286.024C260.983 285.994 259.725 286.024 258.474 286.024C258.474 286.047 258.474 286.069 258.474 286.084C256.906 286.084 255.301 285.867 253.779 286.129C249.724 286.832 245.594 286.87 241.547 287.551C238.924 287.992 236.241 287.461 233.709 288.045C229.474 289.018 225.14 288.374 220.882 289.272C218.44 289.789 215.818 289.669 213.278 290.028C211.801 290.238 210.648 290.702 210.188 291.996C209.683 293.426 210.233 294.653 211.409 295.798C222.344 306.493 233.068 317.405 244.2 327.905C247.832 331.332 251.261 334.955 255.022 338.248C256.703 339.722 259.958 338.921 260.041 336.773C260.139 334.274 261.029 331.894 260.916 329.417C260.765 326.228 261.443 323.108 261.873 320.017C262.536 315.309 262.943 310.572 263.455 305.857C264.066 300.281 264.412 294.668 264.985 289.078C265.151 287.431 263.93 286.061 262.242 286.017L262.234 286.024Z" fill="white" fill-opacity="0.25"/>
<path d="M59.2216 297.95C59.1022 297.89 58.9007 297.838 58.7663 297.71C57.5272 296.529 56.2208 295.431 55.1011 294.13C54.5264 293.461 53.8471 292.867 53.1752 292.288C50.8761 290.34 48.898 288.062 46.7332 285.972C45.9793 285.242 45.4269 285.197 44.7028 285.934C43.0158 287.641 41.4109 289.446 39.6567 291.085C37.365 293.228 35.2227 295.529 32.9609 297.702C32.6324 298.018 32.1845 298.116 31.8785 297.83C30.296 296.334 28.6836 294.86 27.3176 293.153C26.795 292.499 26.9443 291.95 27.5714 291.378C31.5724 287.716 35.2674 283.738 39.1416 279.941C39.8956 279.204 40.0225 278.662 39.276 277.903C37.6487 276.264 36.0512 274.587 34.4165 272.955C32.8489 271.391 31.2365 269.88 29.6615 268.323C29.027 267.699 28.3999 267.067 27.6385 266.586C27.0414 266.21 26.7876 265.736 27.2802 265.022C28.5343 263.202 30.2512 261.833 31.7665 260.269C32.2144 259.811 32.7295 260.044 33.1549 260.472C35.2227 262.555 37.2904 264.638 39.3805 266.699C41.284 268.571 43.2248 270.421 45.1507 272.278C45.5165 272.632 45.8897 272.669 46.2928 272.331C46.5914 272.075 46.9198 271.85 47.2035 271.571C50.6372 268.18 53.9964 264.714 57.5122 261.412C59.565 259.487 58.9828 259.578 61.1027 261.39C62.2822 262.397 63.3123 263.571 64.3947 264.691C65.1934 265.518 65.2158 265.804 64.3797 266.571C60.4085 270.218 56.7434 274.181 52.914 277.971C51.9361 278.941 51.9361 279.069 52.9289 280.046C55.2579 282.34 57.5719 284.648 59.8561 286.979C61.267 288.423 62.8345 289.686 64.1707 291.198C65.0068 292.145 65.0292 292.453 64.1558 293.356C62.8495 294.702 61.5432 296.063 60.2219 297.401C59.9681 297.657 59.6919 297.905 59.2291 297.943L59.2216 297.95Z" fill="white" fill-opacity="0.25"/>
<path d="M131.235 588.909C138.425 584.626 146.194 584.933 153.992 586.554C162.581 588.344 169.177 593.312 174.072 600.666C178.521 607.348 180.393 614.674 179.688 622.611C179.081 629.406 176.614 635.377 172.358 640.716C169.173 644.712 165.514 647.999 160.876 650.001C150.954 654.272 140.951 655.011 130.838 649.993C127.848 648.51 125.118 646.701 122.559 644.62C120.023 642.553 118.409 639.658 116.684 636.921C110.945 627.824 110.408 618.16 113.735 608.245C115.833 601.986 119.692 596.999 124.789 592.836C126.804 591.189 129.071 590.192 131.232 588.92L131.235 588.909Z" fill="white" fill-opacity="0.25"/>
<path d="M113.203 712.361C112.176 710.319 111.209 708.246 110.105 706.25C108.684 703.674 105.417 703.339 103.624 705.637C100.991 709.005 97.7109 711.718 94.731 714.746C93.4377 716.061 92.0577 717.303 90.5777 718.396C88.0176 720.282 82.7337 721.335 79.0392 718.208C76.8252 716.33 74.9345 714.215 73.5405 711.625C71.4495 707.733 70.0518 703.458 66.9941 700.085C66.1237 699.119 65.4603 698.912 64.3035 699.419C61.7467 700.547 60.4202 702.942 58.5703 704.795C55.657 707.706 53.0105 710.865 49.6438 713.322C47.2304 715.084 42.2098 715.964 40.2559 714.769C38.8722 713.928 38.0819 712.755 38.325 711.112C38.578 709.423 39.3845 707.821 41.0914 707.477C44.1318 706.863 45.975 704.698 47.9716 702.755C51.2749 699.523 54.3714 696.096 57.658 692.848C63.5878 687 70.4458 688.661 74.741 694.827C77.4187 698.674 79.7865 702.718 81.6376 707.013C83.2852 710.821 86.3524 710.941 89.2689 707.688C92.3521 704.251 95.5719 700.92 98.7952 697.629C100.715 695.667 103.452 694.132 106.289 693.827C109.459 693.488 112.01 695.238 114.398 697.278C116.952 699.45 117.656 702.694 119.533 705.265C121.337 707.723 122.801 710.468 124.109 713.267C124.919 715.012 127.76 715.378 129.23 713.899C132.186 710.925 134.896 707.693 137.953 704.818C140.459 702.461 142.646 699.616 146.389 698.822C150.397 697.97 153.341 699.689 156.022 702.229C158.146 704.244 159.513 706.847 160.854 709.363C162.421 712.298 164.315 715.034 165.759 718.039C166.59 719.774 169.183 719.865 170.543 718.5C174.657 714.371 178.743 710.205 183.04 706.275C186.896 702.748 192.271 702.522 196.105 705.513C197.435 706.547 198.549 707.832 199.413 709.367C202.131 714.174 204.999 718.897 207.793 723.657C208.51 724.883 209.634 725.556 210.901 726.099C212.538 726.796 213.582 728.739 213.312 730.462C213.002 732.421 211.599 733.633 209.692 734.011C206.202 734.711 203.905 733.132 201.657 730.706C198.906 727.744 197.225 724.218 195.474 720.703C194.434 718.601 193.137 716.669 191.709 714.828C190.415 713.168 188.885 712.999 187.365 714.511C183.909 717.936 180.522 721.417 177.082 724.859C173.959 727.983 170.506 730.301 165.745 729.405C162.764 728.843 160.773 727.027 159.016 724.695C156.852 721.82 155.674 718.416 153.664 715.447C152.573 713.843 151.543 712.143 150.569 710.439C149.318 708.251 146.508 708.459 144.578 710.768C141.568 714.367 138.355 717.811 134.885 720.943C131.455 724.039 127.381 726.204 122.54 724.268C119.6 723.088 117.656 720.633 116.052 718.008C114.961 716.222 114.141 714.275 113.19 712.401L113.203 712.361Z" fill="white" fill-opacity="0.25"/>
<path d="M320.109 802.476C320.226 800.193 320.41 797.913 320.437 795.632C320.476 792.691 317.801 790.784 315.107 791.895C311.153 793.521 306.96 794.258 302.873 795.416C301.099 795.919 299.285 796.317 297.458 796.536C294.3 796.909 289.187 795.212 287.522 790.667C286.526 787.94 285.928 785.167 285.996 782.227C286.103 777.81 287.002 773.403 286.011 768.959C285.733 767.689 285.258 767.181 284.002 767.05C281.222 766.766 278.884 768.193 276.361 768.889C272.389 769.978 268.527 771.416 264.386 771.887C261.417 772.226 256.618 770.508 255.51 768.504C254.723 767.088 254.616 765.678 255.639 764.37C256.695 763.027 258.188 762.033 259.841 762.579C262.788 763.547 265.46 762.577 268.157 761.875C272.626 760.699 277.011 759.251 281.474 758.053C289.52 755.901 294.66 760.736 295.345 768.219C295.771 772.886 295.829 777.572 295.315 782.221C294.864 786.346 297.471 787.966 301.615 786.58C305.994 785.117 310.439 783.814 314.868 782.547C317.507 781.79 320.645 781.81 323.262 782.947C326.185 784.219 327.537 787.002 328.604 789.955C329.75 793.106 328.758 796.274 329.119 799.437C329.472 802.465 329.388 805.575 329.14 808.655C328.982 810.572 331.27 812.295 333.279 811.736C337.319 810.613 341.273 809.143 345.351 808.155C348.695 807.345 352.002 805.954 355.649 807.114C359.553 808.355 361.263 811.305 362.337 814.838C363.187 817.64 363.089 820.578 363.01 823.428C362.922 826.754 363.215 830.069 362.985 833.395C362.849 835.313 365.059 836.675 366.916 836.161C372.533 834.605 378.144 833.005 383.822 831.712C388.918 830.554 393.701 833.014 395.556 837.51C396.201 839.066 396.534 840.734 396.526 842.495C396.512 848.017 396.669 853.54 396.745 859.06C396.762 860.48 397.406 861.621 398.239 862.719C399.317 864.135 399.264 866.339 398.178 867.703C396.94 869.253 395.121 869.613 393.277 868.998C389.897 867.881 388.68 865.373 387.926 862.153C386.999 858.218 387.281 854.323 387.497 850.402C387.632 848.06 387.46 845.739 387.13 843.433C386.825 841.351 385.579 840.447 383.51 841.01C378.812 842.278 374.147 843.63 369.456 844.921C365.196 846.092 361.048 846.4 357.353 843.267C355.04 841.305 354.207 838.743 353.833 835.847C353.373 832.278 354.033 828.736 353.753 825.162C353.598 823.228 353.543 821.241 353.539 819.278C353.533 816.758 350.987 815.55 348.169 816.602C343.773 818.243 339.277 819.648 334.712 820.655C330.2 821.65 325.589 821.518 322.338 817.442C320.366 814.962 319.889 811.868 319.793 808.793C319.728 806.701 319.977 804.603 320.077 802.504L320.109 802.476Z" fill="white" fill-opacity="0.25"/>
<path d="M259.131 690.036C248.997 696.076 234.097 691.688 228.983 680.271C224.016 669.177 227.601 656.815 239.298 650.908C249.604 645.7 262.701 649.807 269.161 662.275C273.531 670.72 268.231 687.146 259.128 690.046L259.131 690.036Z" fill="white" fill-opacity="0.25"/>
<path d="M-29.9119 747.446C-29.7541 746.849 -29.6524 746.372 -29.5008 745.912C-28.3403 742.372 -27.2132 738.833 -25.9894 735.319C-25.4748 733.842 -25.4573 733.081 -27.3438 732.543C-31.3066 731.405 -35.1509 729.856 -39.0479 728.484C-39.5146 728.317 -39.9848 728.111 -40.4678 728.045C-43.7058 727.603 -43.5496 726.505 -42.8081 724.17C-40.9429 718.255 -38.9677 712.377 -36.9825 706.502C-36.5505 705.224 -36.1926 703.7 -35.283 702.858C-34.2173 701.88 -32.9072 703.358 -31.6516 703.437C-30.5093 703.505 -29.479 703.931 -28.4257 704.27C-18.4591 707.475 -8.49259 710.68 1.47401 713.902C3.92066 714.692 3.85072 714.685 3.03283 717.084C1.02785 723.019 -0.910498 728.971 -2.87548 734.919C-4.8009 740.748 -6.7363 746.573 -8.64172 752.407C-8.94498 753.345 -9.19955 753.899 -10.4328 753.517C-16.3926 751.654 -22.3919 749.894 -28.3648 748.088C-28.8781 747.929 -29.3684 747.682 -29.9186 747.45L-29.9119 747.446Z" fill="white" fill-opacity="0.25"/>
<path d="M80.7958 844.159C69.8916 850.713 59.2101 857.628 48.4456 864.41C44.5114 856.587 40.5805 848.77 36.6528 840.943C35.5201 838.691 35.6178 838.409 37.8786 837.264C47.5276 832.412 57.17 827.563 66.8189 822.711C69.1489 821.539 69.3901 821.625 70.606 824.027C74.0037 830.734 77.3981 837.451 80.7958 844.159Z" fill="white" fill-opacity="0.25"/>
<path d="M153.567 749.988C154.28 749.588 154.751 749.807 155.231 749.928C159.896 751.101 164.422 752.732 168.988 754.241C173.023 755.579 177.038 756.977 181.096 758.244C182.369 758.642 182.771 759.073 182.301 760.473C179.464 768.887 176.707 777.328 173.987 785.775C173.494 787.314 172.785 787.62 171.223 787.199C162.346 784.853 153.681 781.827 144.962 778.98C143.4 778.475 143.737 777.495 144.061 776.471C145.033 773.434 146.041 770.404 147.036 767.381C148.514 762.866 150.002 758.354 151.479 753.84C151.969 752.345 152.794 751.052 153.581 749.981L153.567 749.988Z" fill="white" fill-opacity="0.25"/>
<path d="M12.322 788.417C10.5688 784.93 10.4144 785.36 13.8771 783.619C14.6033 783.254 15.3167 782.813 16.0885 782.589C17.1154 782.286 17.9795 782.212 18.7251 783.443C22.7362 790.096 28.5361 794.309 36.4941 795.56C39.3852 796.016 42.315 796.263 45.1743 795.768C47.0012 795.447 48.9451 795.142 50.6773 794.181C52.6449 793.085 54.7115 792.152 56.7121 791.121C60.4745 789.172 63.1918 786.183 65.3084 782.619C68.546 777.18 69.7726 771.311 69.3414 765.176C69.1773 762.907 68.5883 760.63 67.6127 758.539C67.0937 757.423 67.1705 756.688 68.4031 756.208C68.4569 756.181 68.5174 756.15 68.5712 756.123C73.622 753.436 73.4742 753.494 75.3632 758.657C78.1377 766.252 77.8198 773.828 74.6118 781.219C71.1406 789.225 65.7376 795.802 57.5435 799.677C50.546 802.982 43.1993 804.522 35.5395 803.227C32.1341 802.653 28.8807 801.528 25.7237 800.108C21.0364 798.007 17.1097 795.056 13.9249 791.101C13.2198 790.219 12.8539 789.206 12.3387 788.416L12.322 788.417Z" fill="white" fill-opacity="0.25"/>
<path d="M65.308 658.295C63.5549 654.808 63.4005 655.238 66.8632 653.497C67.5894 653.132 68.3028 652.691 69.0746 652.467C70.1014 652.164 70.9656 652.09 71.7111 653.321C75.7223 659.974 81.5222 664.187 89.4802 665.438C92.3713 665.894 95.301 666.142 98.1603 665.646C99.9872 665.326 101.931 665.02 103.663 664.059C105.631 662.963 107.698 662.03 109.698 661C113.461 659.05 116.178 656.061 118.294 652.497C121.532 647.059 122.759 641.189 122.327 635.055C122.163 632.785 121.574 630.508 120.599 628.417C120.08 627.302 120.157 626.566 121.389 626.086C121.443 626.059 121.503 626.028 121.557 626.001C126.608 623.314 126.46 623.372 128.349 628.535C131.124 636.13 130.806 643.706 127.598 651.097C124.127 659.103 118.724 665.68 110.53 669.555C103.532 672.861 96.1853 674.4 88.5256 673.105C85.1201 672.531 81.8668 671.406 78.7098 669.986C74.0225 667.885 70.0958 664.934 66.911 660.98C66.2059 660.097 65.8399 659.084 65.3248 658.295L65.308 658.295Z" fill="white" fill-opacity="0.25"/>
<path d="M-51.837 352.797C-53.5901 349.311 -53.7445 349.741 -50.2818 348C-49.5557 347.635 -48.8422 347.194 -48.0704 346.97C-47.0436 346.666 -46.1794 346.592 -45.4339 347.824C-41.4227 354.477 -35.6228 358.69 -27.6648 359.941C-24.7737 360.396 -21.844 360.644 -18.9846 360.149C-17.1577 359.828 -15.2138 359.523 -13.4817 358.561C-11.514 357.465 -9.4474 356.533 -7.44687 355.502C-3.68445 353.553 -0.96714 350.564 1.14947 347C4.3871 341.561 5.61363 335.691 5.18246 329.557C5.01841 327.288 4.42937 325.011 3.45378 322.92C2.93481 321.804 3.0116 321.069 4.24417 320.589C4.29796 320.561 4.35847 320.531 4.41226 320.504C9.46309 317.817 9.31529 317.874 11.2042 323.038C13.9788 330.633 13.6609 338.209 10.4529 345.599C6.98171 353.606 1.57865 360.183 -6.61539 364.057C-13.6129 367.363 -20.9596 368.902 -28.6194 367.608C-32.0249 367.034 -35.2782 365.908 -38.4352 364.488C-43.1225 362.387 -47.0492 359.437 -50.234 355.482C-50.9392 354.599 -51.3051 353.587 -51.8202 352.797L-51.837 352.797Z" fill="white" fill-opacity="0.25"/>
<path d="M1.14911 222.676C-0.604044 219.189 -0.758459 219.619 2.70426 217.878C3.43042 217.513 4.14388 217.072 4.91566 216.848C5.9425 216.545 6.80666 216.471 7.5522 217.702C11.5634 224.355 17.3632 228.568 25.3213 229.819C28.2123 230.275 31.1421 230.522 34.0014 230.027C35.8283 229.706 37.7722 229.401 39.5044 228.44C41.472 227.344 43.5386 226.411 45.5391 225.38C49.3016 223.431 52.0189 220.442 54.1355 216.878C57.3731 211.439 58.5997 205.57 58.1685 199.435C58.0045 197.166 57.4155 194.889 56.4399 192.798C55.9209 191.682 55.9977 190.947 57.2302 190.467C57.284 190.44 57.3446 190.409 57.3983 190.382C62.4492 187.695 62.3014 187.753 64.1903 192.916C66.9649 200.511 66.647 208.087 63.439 215.478C59.9678 223.484 54.5647 230.061 46.3706 233.936C39.3731 237.241 32.0264 238.781 24.3666 237.486C20.9612 236.912 17.7078 235.787 14.5508 234.367C9.86357 232.266 5.93689 229.315 2.75203 225.361C2.04692 224.478 1.681 223.465 1.16586 222.675L1.14911 222.676Z" fill="white" fill-opacity="0.25"/>
<path d="M323.354 710.417C317.635 713.75 310.121 711.07 307.993 706.072C305.509 700.244 307.196 693.98 312.947 691.105C319.007 688.075 326.017 690.194 328.717 696.142C330.501 700.084 329.308 708.372 323.36 710.413L323.354 710.417ZM314.813 694.405C311.938 695.63 309.521 699.591 311.684 703.826C313.715 707.797 317.589 709.001 321.779 706.979C324.959 705.439 326.54 700.94 324.777 697.708C322.766 694.015 319.026 692.396 314.806 694.408L314.813 694.405Z" fill="white" fill-opacity="0.25"/>
<path d="M31.3821 759.629C25.664 762.963 18.1491 760.283 16.0216 755.285C13.5371 749.457 15.2249 743.193 20.976 740.318C27.0352 737.288 34.0455 739.407 36.7451 745.355C38.53 749.297 37.3363 757.585 31.389 759.626L31.3821 759.629ZM22.8412 743.617C19.9662 744.843 17.5492 748.804 19.7129 753.039C21.7439 757.009 25.618 758.214 29.8079 756.192C32.988 754.652 34.5687 750.153 32.8059 746.921C30.7947 743.228 27.055 741.609 22.8344 743.621L22.8412 743.617Z" fill="white" fill-opacity="0.25"/>
<path d="M30.7837 669.548C31.9149 669.013 33.0258 668.421 34.1435 667.858C34.1334 667.838 34.1233 667.818 34.1166 667.805C35.5171 667.101 37.0487 666.573 38.2911 665.656C41.5974 663.205 45.2703 661.317 48.58 658.89C50.7247 657.317 53.3604 656.586 55.3605 654.927C58.7073 652.155 62.868 650.783 66.2686 648.068C68.2181 646.51 70.615 645.438 72.7227 643.976C73.9482 643.126 74.7699 642.193 74.5989 640.83C74.4078 639.326 73.3649 638.476 71.8001 637.982C57.2258 633.34 42.7424 628.409 28.0804 624.029C23.2951 622.599 18.6042 620.904 13.765 619.651C11.6012 619.089 9.05227 621.267 9.9432 623.223C10.9787 625.501 11.2534 628.026 12.4673 630.189C14.0343 632.969 14.8304 636.062 15.8353 639.017C17.3577 643.52 19.1224 647.935 20.7829 652.378C22.7424 657.633 24.9544 662.804 26.9544 668.056C27.5459 669.601 29.252 670.276 30.7804 669.558L30.7837 669.548Z" fill="white" fill-opacity="0.25"/>
<path d="M206.797 567.686C206.931 567.686 207.134 567.643 207.312 567.697C208.949 568.195 210.61 568.589 212.194 569.248C213.009 569.588 213.882 569.813 214.743 570.029C217.672 570.736 220.463 571.883 223.336 572.778C224.337 573.091 224.851 572.883 225.167 571.899C225.907 569.616 226.53 567.283 227.361 565.03C228.445 562.086 229.326 559.068 230.37 556.11C230.521 555.68 230.878 555.392 231.279 555.51C233.366 556.136 235.468 556.728 237.455 557.639C238.216 557.989 238.329 558.546 238.026 559.339C236.097 564.408 234.583 569.622 232.828 574.755C232.485 575.752 232.615 576.293 233.623 576.636C235.813 577.369 237.994 578.15 240.187 578.873C242.291 579.566 244.41 580.192 246.517 580.875C247.364 581.148 248.208 581.43 249.104 581.518C249.807 581.586 250.246 581.895 250.127 582.755C249.824 584.944 248.905 586.938 248.254 589.016C248.06 589.627 247.495 589.65 246.922 589.458C244.139 588.526 241.356 587.594 238.563 586.693C236.022 585.875 233.457 585.094 230.902 584.3C230.416 584.149 230.066 584.283 229.858 584.766C229.706 585.129 229.514 585.478 229.385 585.854C227.841 590.426 226.397 595.033 224.739 599.561C223.77 602.203 224.25 601.861 221.542 601.195C220.035 600.824 218.588 600.239 217.118 599.724C216.033 599.344 215.884 599.099 216.286 598.038C218.196 592.996 219.69 587.809 221.408 582.702C221.846 581.396 221.789 581.282 220.463 580.855C217.352 579.852 214.247 578.829 211.159 577.773C209.25 577.117 207.282 576.693 205.409 575.943C204.237 575.472 204.078 575.206 204.453 574.008C205.015 572.218 205.571 570.416 206.15 568.626C206.262 568.284 206.397 567.938 206.794 567.696L206.797 567.686Z" fill="white" fill-opacity="0.25"/>
<path d="M413.432 165.132C425.2 164.289 436.54 174.904 435.979 187.401C435.433 199.544 426.677 208.977 413.572 208.999C402.026 209.022 392.17 199.469 392 185.428C391.889 175.92 404.004 163.626 413.439 165.124L413.432 165.132Z" fill="white" fill-opacity="0.25"/>
<path d="M365.212 118.071C371.818 117.662 377.329 123.432 376.984 128.854C376.585 135.176 372.263 140.015 365.833 139.999C359.059 139.984 353.748 134.941 354.008 128.414C354.184 124.091 358.974 117.223 365.205 118.071H365.212ZM365.649 136.214C368.768 136.41 372.707 133.957 372.677 129.202C372.646 124.742 369.726 121.925 365.074 121.85C361.542 121.797 358.108 125.106 358.231 128.785C358.369 132.988 360.982 136.115 365.657 136.214H365.649Z" fill="white" fill-opacity="0.25"/>
<path d="M405.22 297.95C405.101 297.89 404.899 297.838 404.765 297.71C403.526 296.529 402.22 295.431 401.1 294.13C400.525 293.461 399.846 292.867 399.174 292.288C396.875 290.34 394.897 288.062 392.732 285.972C391.978 285.242 391.426 285.197 390.702 285.934C389.015 287.641 387.41 289.446 385.655 291.085C383.364 293.228 381.221 295.529 378.96 297.702C378.631 298.018 378.183 298.116 377.877 297.83C376.295 296.334 374.682 294.86 373.316 293.153C372.794 292.499 372.943 291.95 373.57 291.378C377.571 287.716 381.266 283.738 385.14 279.941C385.894 279.204 386.021 278.662 385.275 277.903C383.647 276.264 382.05 274.587 380.415 272.955C378.848 271.391 377.235 269.88 375.66 268.323C375.026 267.699 374.399 267.067 373.637 266.586C373.04 266.21 372.786 265.736 373.279 265.022C374.533 263.202 376.25 261.833 377.765 260.269C378.213 259.811 378.728 260.044 379.154 260.472C381.221 262.555 383.289 264.638 385.379 266.699C387.283 268.571 389.224 270.421 391.149 272.278C391.515 272.632 391.888 272.669 392.292 272.331C392.59 272.075 392.919 271.85 393.202 271.571C396.636 268.18 399.995 264.714 403.511 261.412C405.564 259.487 404.982 259.578 407.102 261.39C408.281 262.397 409.311 263.571 410.393 264.691C411.192 265.518 411.215 265.804 410.379 266.571C406.407 270.218 402.742 274.181 398.913 277.971C397.935 278.941 397.935 279.069 398.928 280.046C401.257 282.34 403.571 284.648 405.855 286.979C407.266 288.423 408.833 289.686 410.17 291.198C411.006 292.145 411.028 292.453 410.155 293.356C408.848 294.702 407.542 296.063 406.221 297.401C405.967 297.657 405.691 297.905 405.228 297.943L405.22 297.95Z" fill="white" fill-opacity="0.25"/>
</g>
</svg>
