<svg width="24" height="24" viewBox="0 0 24 24" fill="none" xmlns="http://www.w3.org/2000/svg">
<path fill-rule="evenodd" clip-rule="evenodd" d="M13.2976 18.7499C13.4638 18.7499 13.6173 18.6608 13.6996 18.5163L17.0456 12.6431C17.4891 11.8646 17.6752 10.9657 17.5773 10.0751L17.2242 6.86142C17.1614 6.28964 16.7125 5.83673 16.1413 5.76878L14.0242 5.51694C12.6267 5.35069 11.2097 5.4948 9.87417 5.939C9.21463 6.15837 8.68636 6.65896 8.43185 7.30575L6.72776 11.6363C6.6861 11.7422 6.6573 11.8527 6.642 11.9654C6.51276 12.9175 7.34623 13.7207 8.2929 13.5563L11.7087 12.963C12.7877 12.7756 13.7196 13.7278 13.509 14.8025L12.8436 18.1984C12.7876 18.4841 13.0064 18.7499 13.2976 18.7499ZM15.0029 19.2588C14.6538 19.8716 14.0028 20.2499 13.2976 20.2499C12.0622 20.25 11.1341 19.1223 11.3716 17.9099L12.037 14.5141C12.0399 14.4995 12.0383 14.4906 12.0363 14.4843C12.0339 14.4764 12.0288 14.4672 12.0204 14.4586C12.0121 14.4501 12.003 14.4448 11.9952 14.4422C11.9889 14.4401 11.98 14.4383 11.9654 14.4409L8.54958 15.0342C6.6034 15.3722 4.88993 13.721 5.15563 11.7637C5.1871 11.5319 5.24629 11.3047 5.33194 11.0871L7.03603 6.75649C7.45331 5.69606 8.31942 4.87532 9.40075 4.51566C10.9456 4.00183 12.5848 3.83513 14.2014 4.02744L16.3185 4.27928C17.5827 4.42967 18.5762 5.43207 18.7152 6.69757L19.0684 9.91125C19.2008 11.1163 18.949 12.3323 18.3489 13.3856L15.0029 19.2588Z" fill="black"/>
</svg>
