<svg width="24" height="24" viewBox="0 0 24 24" fill="none" xmlns="http://www.w3.org/2000/svg">
<g clip-path="url(#clip0_184_1681)">
<path d="M22.9998 11.0006H20.9998V9.00061C20.9998 8.73539 20.8945 8.48104 20.7069 8.2935C20.5194 8.10597 20.2651 8.00061 19.9998 8.00061C19.7346 8.00061 19.4803 8.10597 19.2927 8.2935C19.1052 8.48104 18.9998 8.73539 18.9998 9.00061V11.0006H16.9998C16.7346 11.0006 16.4803 11.106 16.2927 11.2935C16.1052 11.481 15.9998 11.7354 15.9998 12.0006C15.9998 12.2658 16.1052 12.5202 16.2927 12.7077C16.4803 12.8952 16.7346 13.0006 16.9998 13.0006H18.9998V15.0006C18.9998 15.2658 19.1052 15.5202 19.2927 15.7077C19.4803 15.8952 19.7346 16.0006 19.9998 16.0006C20.2651 16.0006 20.5194 15.8952 20.7069 15.7077C20.8945 15.5202 20.9998 15.2658 20.9998 15.0006V13.0006H22.9998C23.265 13.0006 23.5194 12.8952 23.7069 12.7077C23.8945 12.5202 23.9998 12.2658 23.9998 12.0006C23.9998 11.7354 23.8945 11.481 23.7069 11.2935C23.5194 11.106 23.265 11.0006 22.9998 11.0006Z" fill="#374957"/>
<path d="M9 11.9999C10.1867 11.9999 11.3467 11.648 12.3334 10.9887C13.3201 10.3294 14.0892 9.39234 14.5433 8.29598C14.9974 7.19963 15.1162 5.99323 14.8847 4.82934C14.6532 3.66545 14.0818 2.59635 13.2426 1.75724C12.4035 0.918125 11.3344 0.34668 10.1705 0.115169C9.00666 -0.116342 7.80026 0.00247765 6.7039 0.456603C5.60754 0.910729 4.67047 1.67976 4.01118 2.66646C3.35189 3.65315 3 4.81319 3 5.99988C3.00159 7.59069 3.63424 9.11589 4.75911 10.2408C5.88399 11.3656 7.40919 11.9983 9 11.9999ZM9 1.99988C9.79113 1.99988 10.5645 2.23448 11.2223 2.674C11.8801 3.11353 12.3928 3.73824 12.6955 4.46915C12.9983 5.20005 13.0775 6.00432 12.9231 6.78024C12.7688 7.55617 12.3878 8.2689 11.8284 8.82831C11.269 9.38772 10.5563 9.76868 9.78036 9.92302C9.00444 10.0774 8.20017 9.99815 7.46927 9.6954C6.73836 9.39265 6.11365 8.87996 5.67412 8.22216C5.2346 7.56436 5 6.79101 5 5.99988C5 4.93901 5.42143 3.9216 6.17157 3.17145C6.92172 2.42131 7.93913 1.99988 9 1.99988Z" fill="#374957"/>
<path d="M9 14.0006C6.61386 14.0033 4.32622 14.9523 2.63896 16.6396C0.951708 18.3268 0.00264685 20.6145 0 23.0006C0 23.2658 0.105357 23.5202 0.292893 23.7077C0.48043 23.8953 0.734784 24.0006 1 24.0006C1.26522 24.0006 1.51957 23.8953 1.70711 23.7077C1.89464 23.5202 2 23.2658 2 23.0006C2 21.1441 2.7375 19.3636 4.05025 18.0509C5.36301 16.7381 7.14348 16.0006 9 16.0006C10.8565 16.0006 12.637 16.7381 13.9497 18.0509C15.2625 19.3636 16 21.1441 16 23.0006C16 23.2658 16.1054 23.5202 16.2929 23.7077C16.4804 23.8953 16.7348 24.0006 17 24.0006C17.2652 24.0006 17.5196 23.8953 17.7071 23.7077C17.8946 23.5202 18 23.2658 18 23.0006C17.9974 20.6145 17.0483 18.3268 15.361 16.6396C13.6738 14.9523 11.3861 14.0033 9 14.0006Z" fill="#374957"/>
</g>
<defs>
<clipPath id="clip0_184_1681">
<rect width="24" height="24" fill="white"/>
</clipPath>
</defs>
</svg>
