<svg width="24" height="24" viewBox="0 0 24 24" fill="none" xmlns="http://www.w3.org/2000/svg">
<path fill-rule="evenodd" clip-rule="evenodd" d="M7.25 6.63104V5.46126C7.25 4.59501 7.88374 3.85912 8.7404 3.73062L9.96032 3.54763C11.3125 3.3448 12.6875 3.3448 14.0397 3.54763L15.2596 3.73062C16.1163 3.85912 16.75 4.59501 16.75 5.46126V6.63104L18.464 6.76939C19.7764 6.87533 20.847 7.86347 21.0574 9.16319C21.5226 12.0357 21.5226 14.9644 21.0574 17.8369C20.847 19.1367 19.7764 20.1248 18.464 20.2307L16.5921 20.3818C13.5357 20.6285 10.4643 20.6285 7.40787 20.3818L5.53595 20.2307C4.22357 20.1248 3.15303 19.1367 2.94255 17.8369C2.47736 14.9644 2.47736 12.0357 2.94255 9.16319C3.15303 7.86347 4.22357 6.87533 5.53596 6.76939L7.25 6.63104ZM10.1828 5.03104C11.3875 4.85033 12.6125 4.85033 13.8172 5.03104L15.0371 5.21402C15.1595 5.23238 15.25 5.33751 15.25 5.46126V6.52586C13.0851 6.40239 10.9149 6.40239 8.75 6.52586V5.46126C8.75 5.33751 8.84053 5.23238 8.96291 5.21402L10.1828 5.03104ZM7.52856 8.11343C10.5047 7.8732 13.4953 7.8732 16.4714 8.11343L18.3433 8.26453C18.9675 8.31491 19.4766 8.78485 19.5767 9.40298C19.6391 9.78791 19.6926 10.1739 19.7372 10.5607C14.8596 12.9625 9.14038 12.9625 4.26278 10.5607C4.30743 10.1739 4.36092 9.78791 4.42326 9.40298C4.52336 8.78485 5.03249 8.31491 5.65664 8.26453L7.52856 8.11343ZM4.12889 12.1567C9.12829 14.4304 14.8717 14.4304 19.8711 12.1567C19.9664 13.9729 19.8683 15.7967 19.5767 17.5971C19.4766 18.2153 18.9675 18.6852 18.3433 18.7356L16.4714 18.8867C13.4953 19.1269 10.5047 19.1269 7.52856 18.8867L5.65664 18.7356C5.03249 18.6852 4.52336 18.2153 4.42326 17.5971C4.13169 15.7967 4.03356 13.9729 4.12889 12.1567Z" fill="black"/>
</svg>
