<svg width="24" height="24" viewBox="0 0 24 24" fill="none" xmlns="http://www.w3.org/2000/svg">
<g clip-path="url(#clip0_184_1649)">
<path d="M23.1469 9.471L22.3599 8.4C21.8146 7.65793 21.1027 7.0542 20.2815 6.63736C19.4603 6.22052 18.5528 6.00222 17.6319 6H6.38291C5.48093 6.00236 4.59153 6.21176 3.78326 6.61209C2.97498 7.01241 2.26941 7.59296 1.72091 8.309L0.899905 9.383C0.233387 10.2623 -0.0799862 11.3592 0.0214262 12.4579C0.122839 13.5566 0.631696 14.5776 1.44791 15.32L9.43791 23.027C10.1397 23.6528 11.0476 23.9979 11.9879 23.996C12.9481 23.9941 13.8739 23.638 14.5879 22.996L22.5239 15.363C23.3448 14.6361 23.864 13.6283 23.9793 12.5379C24.0945 11.4476 23.7976 10.3535 23.1469 9.471ZM20.7469 9.578L21.5339 10.652C21.613 10.7619 21.6826 10.8783 21.7419 11H16.9509C16.8785 10.5211 16.7538 10.0516 16.5789 9.6L15.9389 8H17.6319C18.2384 8.00115 18.8361 8.1445 19.3771 8.41856C19.9181 8.69261 20.3872 9.08973 20.7469 9.578ZM11.9899 20.088L9.22091 13.818C9.12075 13.5528 9.0451 13.279 8.99491 13H14.9469C14.905 13.2199 14.8461 13.4362 14.7709 13.647L11.9899 20.088ZM9.09991 11C9.14173 10.8207 9.19415 10.6441 9.25691 10.471L10.2409 8H13.7849L14.7219 10.343C14.8042 10.5569 14.871 10.7765 14.9219 11H9.09991ZM3.31091 9.521C3.67247 9.04935 4.13744 8.66695 4.67003 8.40326C5.20262 8.13957 5.78861 8.00161 6.38291 8H8.08291L7.39991 9.729C7.23512 10.1392 7.11216 10.5651 7.03291 11H2.24491C2.31349 10.8587 2.39625 10.7246 2.49191 10.6L3.31091 9.521ZM2.81091 13.854C2.55003 13.6174 2.34508 13.3257 2.21091 13H6.98291C7.04923 13.5388 7.17913 14.0678 7.36991 14.576L10.1969 20.976L2.81091 13.854ZM13.7709 21.014L16.6249 14.4C16.7906 13.9474 16.9059 13.4779 16.9689 13H21.7999C21.6584 13.3433 21.4421 13.6507 21.1669 13.9L13.7709 21.014Z" fill="#374957"/>
<path d="M11.9999 4C12.2651 4 12.5195 3.89464 12.707 3.70711C12.8946 3.51957 12.9999 3.26522 12.9999 3V1C12.9999 0.734784 12.8946 0.48043 12.707 0.292893C12.5195 0.105357 12.2651 0 11.9999 0C11.7347 0 11.4804 0.105357 11.2928 0.292893C11.1053 0.48043 10.9999 0.734784 10.9999 1V3C10.9999 3.26522 11.1053 3.51957 11.2928 3.70711C11.4804 3.89464 11.7347 4 11.9999 4Z" fill="#374957"/>
<path d="M16.5529 3.89993C16.671 3.95929 16.7996 3.99466 16.9314 4.004C17.0633 4.01334 17.1956 3.99646 17.3209 3.95434C17.4461 3.91222 17.5618 3.84568 17.6612 3.75859C17.7606 3.6715 17.8417 3.56557 17.8999 3.44693L18.8999 1.44693C19.0185 1.20956 19.0379 0.934819 18.9538 0.683146C18.8698 0.431472 18.6893 0.223481 18.4519 0.10493C18.2145 -0.0136223 17.9398 -0.0330241 17.6881 0.0509922C17.4364 0.135009 17.2285 0.315561 17.1099 0.552929L16.1099 2.55293C16.0502 2.67039 16.0143 2.7985 16.0042 2.92989C15.9942 3.06127 16.0102 3.19335 16.0514 3.31852C16.0925 3.4437 16.158 3.5595 16.2441 3.65928C16.3302 3.75906 16.4351 3.84084 16.5529 3.89993Z" fill="#374957"/>
<path d="M6.10501 3.44693C6.22356 3.68496 6.43182 3.86615 6.68396 3.95063C6.9361 4.03512 7.21148 4.01598 7.44951 3.89743C7.68754 3.77888 7.86873 3.57062 7.95322 3.31848C8.0377 3.06634 8.01856 2.79096 7.90001 2.55293L6.90001 0.552929C6.84131 0.435396 6.76003 0.330576 6.66082 0.244454C6.56161 0.158331 6.44641 0.0925929 6.32179 0.0509922C6.07012 -0.0330241 5.79538 -0.0136223 5.55801 0.10493C5.32064 0.223481 5.14009 0.431472 5.05607 0.683146C4.97206 0.934819 4.99146 1.20956 5.11001 1.44693L6.10501 3.44693Z" fill="#374957"/>
</g>
<defs>
<clipPath id="clip0_184_1649">
<rect width="24" height="24" fill="white"/>
</clipPath>
</defs>
</svg>
