<svg width="19" height="16" viewBox="0 0 19 16" fill="none" xmlns="http://www.w3.org/2000/svg">
<path fill-rule="evenodd" clip-rule="evenodd" d="M0.192702 4.04976C-0.0874415 6.75258 -0.074954 9.8698 0.314869 12.5616C0.530567 14.0511 1.70124 15.193 3.14631 15.3234L4.65654 15.4597C7.80558 15.744 10.9724 15.744 14.1215 15.4597L15.6317 15.3234C17.0768 15.193 18.2475 14.0511 18.4632 12.5616C18.853 9.86979 18.8655 6.75275 18.5853 4.04993C18.5491 3.73658 18.5084 3.42366 18.4632 3.11126C18.2475 1.6218 17.0768 0.479947 15.6317 0.349508L14.1215 0.213187C10.9724 -0.0710623 7.80558 -0.0710621 4.65654 0.213187L3.14631 0.349508C1.70124 0.479947 0.530567 1.6218 0.314869 3.11126C0.269637 3.4236 0.228914 3.73647 0.192702 4.04976ZM4.78644 1.76492C7.84905 1.48847 10.929 1.48847 13.9916 1.76492L15.5018 1.90124C16.2562 1.96933 16.8672 2.56538 16.9798 3.34288C16.9915 3.42362 17.0029 3.5044 17.014 3.58521L11.453 6.79326C10.1694 7.53374 8.60859 7.53374 7.325 6.79326L1.76406 3.58525C1.77512 3.50442 1.7865 3.42363 1.79819 3.34288C1.91079 2.56538 2.52188 1.96933 3.27621 1.90124L4.78644 1.76492ZM17.1975 5.26114C17.3915 7.61594 17.3189 9.9885 16.9798 12.33C16.8672 13.1075 16.2562 13.7036 15.5018 13.7717L13.9916 13.908C10.929 14.1844 7.84905 14.1844 4.78644 13.908L3.27621 13.7717C2.52188 13.7036 1.91079 13.1075 1.79819 12.33C1.4591 9.98851 1.38654 7.61597 1.58051 5.26117L6.59653 8.15483C8.33316 9.15666 10.4448 9.15666 12.1814 8.15483L17.1975 5.26114Z" fill="black"/>
</svg>
