<svg width="18" height="18" viewBox="0 0 18 18" fill="none" xmlns="http://www.w3.org/2000/svg">
<g id="fi-rr-hand-holding-heart" clip-path="url(#clip0_1378_7783)">
<path id="Vector" d="M6.72375 18H3C2.20435 18 1.44129 17.6839 0.87868 17.1213C0.316071 16.5587 0 15.7956 0 15V11.25C0 10.4544 0.316071 9.69129 0.87868 9.12868C1.44129 8.56607 2.20435 8.25 3 8.25H9.64275C10.0487 8.25019 10.4476 8.35516 10.8011 8.55474C11.1545 8.75433 11.4505 9.04177 11.6603 9.38925L14.073 6.738C14.2726 6.51854 14.5134 6.34057 14.7818 6.21425C15.0502 6.08792 15.3409 6.01574 15.6372 6.00181C15.9335 5.98787 16.2296 6.03248 16.5087 6.13306C16.7877 6.23364 17.0442 6.38823 17.2635 6.588C17.701 6.98995 17.9632 7.54762 17.9937 8.14097C18.0241 8.73431 17.8203 9.31589 17.4263 9.7605L12.3263 15.4882C11.6221 16.278 10.759 16.91 9.79345 17.3429C8.82794 17.7758 7.78185 17.9997 6.72375 18ZM3 9.75C2.60218 9.75 2.22064 9.90804 1.93934 10.1893C1.65804 10.4706 1.5 10.8522 1.5 11.25V15C1.5 15.3978 1.65804 15.7794 1.93934 16.0607C2.22064 16.342 2.60218 16.5 3 16.5H6.72375C7.56969 16.4997 8.40601 16.3206 9.1779 15.9744C9.94979 15.6283 10.6398 15.1229 11.2028 14.4915L16.3065 8.763C16.439 8.61374 16.5076 8.41842 16.4975 8.21908C16.4874 8.01974 16.3994 7.83235 16.2525 7.69725C16.1031 7.56294 15.9072 7.49218 15.7065 7.5C15.607 7.50421 15.5093 7.5282 15.4192 7.57056C15.329 7.61293 15.2482 7.67282 15.1815 7.74675L11.862 11.4C11.7163 11.8033 11.4638 12.1595 11.1314 12.4306C10.7991 12.7016 10.3994 12.8773 9.975 12.939L6.10425 13.4925C5.90733 13.5207 5.70725 13.4696 5.54803 13.3503C5.38881 13.2311 5.2835 13.0534 5.25525 12.8565C5.22701 12.6596 5.27814 12.4595 5.39742 12.3003C5.51669 12.1411 5.69433 12.0357 5.89125 12.0075L9.76275 11.4548C9.97765 11.4247 10.1731 11.3142 10.3097 11.1456C10.4463 10.977 10.5138 10.7628 10.4986 10.5464C10.4833 10.3299 10.3865 10.1273 10.2276 9.97948C10.0688 9.83166 9.85974 9.74964 9.64275 9.75H3ZM8.25 6.8055C7.91007 6.80641 7.58005 6.69103 7.31475 6.4785C6.03075 5.448 4.5 3.9 4.5 2.4C4.48159 1.78377 4.70796 1.18533 5.12961 0.735573C5.55126 0.285813 6.13387 0.0213392 6.75 0C7.31051 0.00218312 7.84828 0.221863 8.25 0.61275C8.65172 0.221863 9.18949 0.00218312 9.75 0C10.3661 0.0213392 10.9487 0.285813 11.3704 0.735573C11.792 1.18533 12.0184 1.78377 12 2.4C12 3.9 10.4693 5.448 9.1845 6.47925C8.9193 6.69135 8.58958 6.80646 8.25 6.8055ZM6.75 1.5C6.53201 1.52187 6.33131 1.62841 6.19106 1.79672C6.05081 1.96502 5.9822 2.18164 6 2.4C6 3.075 6.86325 4.1925 8.2545 5.30925C9.63675 4.1925 10.5 3.075 10.5 2.4C10.5178 2.18164 10.4492 1.96502 10.3089 1.79672C10.1687 1.62841 9.96799 1.52187 9.75 1.5C9.53201 1.52187 9.33132 1.62841 9.19106 1.79672C9.05081 1.96502 8.9822 2.18164 9 2.4C9 2.59891 8.92098 2.78968 8.78033 2.93033C8.63968 3.07098 8.44891 3.15 8.25 3.15C8.05109 3.15 7.86032 3.07098 7.71967 2.93033C7.57902 2.78968 7.5 2.59891 7.5 2.4C7.5178 2.18164 7.44919 1.96502 7.30894 1.79672C7.16869 1.62841 6.96799 1.52187 6.75 1.5Z" fill="#202020"/>
</g>
<defs>
<clipPath id="clip0_1378_7783">
<rect width="18" height="18" fill="white"/>
</clipPath>
</defs>
</svg>
