<svg width="112" height="129" viewBox="0 0 112 129" fill="none" xmlns="http://www.w3.org/2000/svg">
<g filter="url(#filter0_d_1192_64)">
<path fill-rule="evenodd" clip-rule="evenodd" d="M39.5443 34.3616C42.3218 32.2042 44 29.3994 44 26.3333C44 19.5218 35.7173 14 25.5 14C15.2827 14 7 19.5218 7 26.3333C7 33.1448 15.2827 38.6667 25.5 38.6667C28.339 38.6667 31.0287 38.2403 33.4328 37.4785L40.7017 40.6277L39.5443 34.3616Z" fill="#FFD600"/>
</g>
<circle cx="17.2778" cy="26.3334" r="2.05556" fill="#090909"/>
<circle cx="25.4999" cy="26.3334" r="2.05556" fill="#090909"/>
<circle cx="33.7225" cy="26.3334" r="2.05556" fill="#090909"/>
<g filter="url(#filter1_d_1192_64)">
<g filter="url(#filter2_d_1192_64)">
<path fill-rule="evenodd" clip-rule="evenodd" d="M76.5 24.6667C86.7173 24.6667 95 19.1448 95 12.3333C95 5.52182 86.7173 0 76.5 0C66.2827 0 58 5.52182 58 12.3333C58 15.4132 59.6933 18.2293 62.4932 20.3906L62.4077 27.6807L68.7416 23.533C71.1011 24.2606 73.7294 24.6667 76.5 24.6667Z" fill="#FFD600"/>
</g>
<circle cx="68.2777" cy="12.3334" r="2.05556" fill="#090909"/>
<circle cx="76.4999" cy="12.3334" r="2.05556" fill="#090909"/>
<circle cx="84.7225" cy="12.3334" r="2.05556" fill="#090909"/>
</g>
<g filter="url(#filter3_d_1192_64)">
<g filter="url(#filter4_d_1192_64)">
<ellipse cx="55" cy="107.5" rx="50" ry="13.5" fill="#1F1F1F"/>
</g>
<path fill-rule="evenodd" clip-rule="evenodd" d="M14 56H92.5C92.5 56 92.3608 58.9477 92.0372 62.5158C93.1049 62.7381 94.1508 63.0313 95.1637 63.3936C97.8285 64.3468 100.2 65.7551 102.112 67.5197C104.024 69.2842 105.43 71.3622 106.232 73.6077C107.033 75.8533 107.21 78.2119 106.751 80.518C106.291 82.8242 105.207 85.0219 103.572 86.957C101.938 88.892 99.7945 90.5174 97.2916 91.7191C94.7886 92.9208 91.9872 93.6696 89.0841 93.9129C86.8534 94.0999 84.6041 93.985 82.4298 93.5767C82.1405 94.0314 81.832 94.5034 81.5 95C81.1887 95.4657 80.8955 95.9104 80.614 96.3374L80.6139 96.3374C78.5962 99.3976 77.1787 101.547 74 104C72.1394 105.436 70.8494 106.161 68.9352 107.065C64.8063 109.516 59.4077 111 53.5 111C49.0567 111 44.9013 110.16 41.3576 108.701C41.1561 108.651 40.9836 108.61 40.8296 108.573C40.1578 108.411 39.8392 108.334 39 108C36.9883 107.199 35.9406 106.428 34.2651 105.195L34 105C32.3274 103.771 31.461 102.974 30 101.5C28.0466 99.5288 27.0805 98.2812 25.5 96C24.2032 94.1282 22.5 91 22.5 91C22.5 91 20.5242 87.1014 19.5 84.5C18.0063 80.7063 17.4579 78.4631 16.5 74.5C15.7982 71.5967 15.4574 69.9517 15 67C14.3395 62.7374 14 56 14 56ZM85.6761 87.5872C86.5309 87.6628 87.3959 87.6652 88.2564 87.593C90.0065 87.4463 91.6954 86.9949 93.2042 86.2705C94.7131 85.5461 96.0055 84.5662 96.9906 83.3997C97.9758 82.2332 98.6298 80.9083 98.9067 79.518C99.1836 78.1277 99.0768 76.7058 98.5937 75.3521C98.1107 73.9984 97.263 72.7457 96.1104 71.682C94.9577 70.6182 93.5279 69.7692 91.9214 69.1946C91.7054 69.1173 91.4869 69.0452 91.2662 68.9784C91.1823 69.5053 91.0936 70.0151 91 70.5C89.922 76.083 89.1666 79.2428 87 84.5C86.5286 85.6438 86.1001 86.6514 85.6761 87.5872Z" fill="#0099FF"/>
<path d="M53.5 62C63.7429 62 73.0482 61.4657 79.8131 60.4384C83.1864 59.9262 85.9838 59.2834 87.9615 58.4978C88.9466 58.1065 89.7904 57.656 90.4043 57.1226C91.0218 56.5859 91.5 55.8775 91.5 55C91.5 54.1319 91.0311 53.4134 90.4272 52.855C89.8219 52.2954 88.9855 51.8029 88.0007 51.3624C86.0245 50.4785 83.2274 49.7069 79.8488 49.0677C73.0752 47.7862 63.76 47 53.5 47C43.2398 47 33.801 47.7862 26.9044 49.0671C23.4643 49.706 20.6068 50.4768 18.5858 51.3587C17.579 51.7981 16.7236 52.2887 16.1044 52.8458C15.4887 53.3997 15 54.1205 15 55C15 55.8893 15.4986 56.5995 16.1275 57.1314C16.755 57.662 17.6175 58.1107 18.6244 58.5009C20.6468 59.2846 23.5045 59.9268 26.9396 60.4388C33.8278 61.4656 43.2568 62 53.5 62Z" fill="#0099FF" stroke="white" stroke-width="2"/>
<path d="M87 58C83.0003 60 71.2252 61 52.9997 61C36.3887 61 20.5 59 19.5 57.5C19.4241 57.3242 19.7782 57.1772 19.9997 57C21.4999 56 34.7742 53 52.9997 53C71.2252 53 88.5003 57.5 87 58Z" fill="#FFD600"/>
<path d="M54.7394 87.5485C55.2704 87.5485 55.5359 87.7963 55.5359 88.2919C55.5359 88.5633 55.4533 88.7875 55.2881 88.9645C53.7187 90.6401 51.4648 91.4779 48.5266 91.4779C45.5884 91.4779 43.2579 90.6814 41.535 89.0884C39.824 87.4954 38.9685 85.389 38.9685 82.7694C38.9685 81.0584 39.3815 79.5126 40.2075 78.132C41.0453 76.7395 42.1781 75.6539 43.606 74.8751C45.0456 74.0963 46.6386 73.7069 48.385 73.7069C50.8276 73.7069 52.7098 74.3382 54.0314 75.6008C54.7276 76.2734 55.0757 77.0581 55.0757 77.955C55.0757 78.486 54.8515 78.9344 54.4031 79.3002C53.9665 79.666 53.4414 79.8489 52.8278 79.8489C52.2142 79.8489 51.7716 79.7958 51.5002 79.6896C51.4176 78.3562 51.1403 77.3354 50.6683 76.6274C50.2081 75.9076 49.4293 75.5477 48.3319 75.5477C46.5383 75.5477 45.1282 76.12 44.1016 77.2646C43.0868 78.4093 42.5793 79.9492 42.5793 81.8844C42.5793 83.8196 43.2284 85.5011 44.5264 86.929C45.8362 88.3568 47.4823 89.0707 49.4647 89.0707C50.6329 89.0707 52.0667 88.6577 53.7659 87.8317C54.1317 87.6429 54.4562 87.5485 54.7394 87.5485Z" fill="#1F1F1F"/>
<path d="M64.8893 94.7985C65.4203 94.7985 65.6858 95.0463 65.6858 95.5419C65.6858 95.8133 65.6032 96.0375 65.438 96.2145C63.8686 97.8901 61.6147 98.7279 58.6765 98.7279C55.7383 98.7279 53.4078 97.9314 51.6849 96.3384C49.9739 94.7454 49.1184 92.639 49.1184 90.0194C49.1184 88.3084 49.5314 86.7626 50.3574 85.382C51.1952 83.9895 52.328 82.9039 53.7559 82.1251C55.1955 81.3463 56.7885 80.9569 58.5349 80.9569C60.9775 80.9569 62.8597 81.5882 64.1813 82.8508C64.8775 83.5234 65.2256 84.3081 65.2256 85.205C65.2256 85.736 65.0014 86.1844 64.553 86.5502C64.1164 86.916 63.5913 87.0989 62.9777 87.0989C62.3641 87.0989 61.9215 87.0458 61.6501 86.9396C61.5675 85.6062 61.2902 84.5854 60.8182 83.8774C60.358 83.1576 59.5792 82.7977 58.4818 82.7977C56.6882 82.7977 55.2781 83.37 54.2515 84.5146C53.2367 85.6593 52.7292 87.1992 52.7292 89.1344C52.7292 91.0696 53.3783 92.7511 54.6763 94.179C55.9861 95.6068 57.6322 96.3207 59.6146 96.3207C60.7828 96.3207 62.2166 95.9077 63.9158 95.0817C64.2816 94.8929 64.6061 94.7985 64.8893 94.7985Z" fill="#1F1F1F"/>
</g>
<defs>
<filter id="filter0_d_1192_64" x="7" y="14" width="38.8557" height="30.3391" filterUnits="userSpaceOnUse" color-interpolation-filters="sRGB">
<feFlood flood-opacity="0" result="BackgroundImageFix"/>
<feColorMatrix in="SourceAlpha" type="matrix" values="0 0 0 0 0 0 0 0 0 0 0 0 0 0 0 0 0 0 127 0" result="hardAlpha"/>
<feOffset dx="1.23715" dy="3.09288"/>
<feGaussianBlur stdDeviation="0.309288"/>
<feComposite in2="hardAlpha" operator="out"/>
<feColorMatrix type="matrix" values="0 0 0 0 0 0 0 0 0 0 0 0 0 0 0 0 0 0 0.42 0"/>
<feBlend mode="normal" in2="BackgroundImageFix" result="effect1_dropShadow_1192_64"/>
<feBlend mode="normal" in="SourceGraphic" in2="effect1_dropShadow_1192_64" result="shape"/>
</filter>
<filter id="filter1_d_1192_64" x="54" y="0" width="45" height="35.6807" filterUnits="userSpaceOnUse" color-interpolation-filters="sRGB">
<feFlood flood-opacity="0" result="BackgroundImageFix"/>
<feColorMatrix in="SourceAlpha" type="matrix" values="0 0 0 0 0 0 0 0 0 0 0 0 0 0 0 0 0 0 127 0" result="hardAlpha"/>
<feOffset dy="4"/>
<feGaussianBlur stdDeviation="2"/>
<feComposite in2="hardAlpha" operator="out"/>
<feColorMatrix type="matrix" values="0 0 0 0 0 0 0 0 0 0 0 0 0 0 0 0 0 0 0.25 0"/>
<feBlend mode="normal" in2="BackgroundImageFix" result="effect1_dropShadow_1192_64"/>
<feBlend mode="normal" in="SourceGraphic" in2="effect1_dropShadow_1192_64" result="shape"/>
</filter>
<filter id="filter2_d_1192_64" x="55.62" y="0" width="39.38" height="31.3907" filterUnits="userSpaceOnUse" color-interpolation-filters="sRGB">
<feFlood flood-opacity="0" result="BackgroundImageFix"/>
<feColorMatrix in="SourceAlpha" type="matrix" values="0 0 0 0 0 0 0 0 0 0 0 0 0 0 0 0 0 0 127 0" result="hardAlpha"/>
<feOffset dx="-1.76" dy="3.09"/>
<feGaussianBlur stdDeviation="0.31"/>
<feComposite in2="hardAlpha" operator="out"/>
<feColorMatrix type="matrix" values="0 0 0 0 0 0 0 0 0 0 0 0 0 0 0 0 0 0 0.25 0"/>
<feBlend mode="normal" in2="BackgroundImageFix" result="effect1_dropShadow_1192_64"/>
<feBlend mode="normal" in="SourceGraphic" in2="effect1_dropShadow_1192_64" result="shape"/>
</filter>
<filter id="filter3_d_1192_64" x="0" y="44" width="112" height="85" filterUnits="userSpaceOnUse" color-interpolation-filters="sRGB">
<feFlood flood-opacity="0" result="BackgroundImageFix"/>
<feColorMatrix in="SourceAlpha" type="matrix" values="0 0 0 0 0 0 0 0 0 0 0 0 0 0 0 0 0 0 127 0" result="hardAlpha"/>
<feOffset dy="3"/>
<feGaussianBlur stdDeviation="2.5"/>
<feComposite in2="hardAlpha" operator="out"/>
<feColorMatrix type="matrix" values="0 0 0 0 0 0 0 0 0 0 0 0 0 0 0 0 0 0 0.25 0"/>
<feBlend mode="normal" in2="BackgroundImageFix" result="effect1_dropShadow_1192_64"/>
<feBlend mode="normal" in="SourceGraphic" in2="effect1_dropShadow_1192_64" result="shape"/>
</filter>
<filter id="filter4_d_1192_64" x="1" y="94" width="108" height="35" filterUnits="userSpaceOnUse" color-interpolation-filters="sRGB">
<feFlood flood-opacity="0" result="BackgroundImageFix"/>
<feColorMatrix in="SourceAlpha" type="matrix" values="0 0 0 0 0 0 0 0 0 0 0 0 0 0 0 0 0 0 127 0" result="hardAlpha"/>
<feOffset dy="4"/>
<feGaussianBlur stdDeviation="2"/>
<feComposite in2="hardAlpha" operator="out"/>
<feColorMatrix type="matrix" values="0 0 0 0 0 0 0 0 0 0 0 0 0 0 0 0 0 0 0.25 0"/>
<feBlend mode="normal" in2="BackgroundImageFix" result="effect1_dropShadow_1192_64"/>
<feBlend mode="normal" in="SourceGraphic" in2="effect1_dropShadow_1192_64" result="shape"/>
</filter>
</defs>
</svg>
